<?xml version="1.0" standalone="no"?>
<!DOCTYPE svg PUBLIC "-//W3C//DTD SVG 20010904//EN"
 "http://www.w3.org/TR/2001/REC-SVG-20010904/DTD/svg10.dtd">
<svg version="1.0" xmlns="http://www.w3.org/2000/svg"
 width="1024.000000pt" height="1024.000000pt" viewBox="0 0 1024.000000 1024.000000"
 preserveAspectRatio="xMidYMid meet">

<g transform="translate(0.000000,1024.000000) scale(0.100000,-0.100000)"
fill="#000000" stroke="none">
<path d="M8621 8935 c-275 -78 -561 -445 -795 -1025 l-54 -135 -74 -17 c-212
-49 -622 -108 -893 -128 -213 -15 -622 -13 -786 5 -185 21 -346 62 -448 115
-109 57 -163 107 -203 188 -31 62 -33 74 -33 167 0 93 3 105 34 169 86 178
351 342 632 392 197 35 456 16 639 -48 178 -62 255 -142 306 -313 l17 -60 9
35 c13 48 2 109 -33 179 -56 113 -182 196 -374 247 -135 35 -400 45 -548 20
-359 -61 -648 -251 -726 -477 -29 -85 -34 -156 -17 -239 69 -330 485 -477
1291 -456 138 3 261 9 275 12 l25 6 -27 -26 -28 -25 -267 -1 c-147 0 -269 -3
-272 -6 -3 -2 120 -3 272 -2 152 2 277 2 277 0 0 -1 -9 -29 -20 -61 -25 -75
-35 -200 -22 -273 l11 -56 -123 -260 c-68 -143 -141 -289 -162 -323 -182 -302
-313 -448 -475 -530 -57 -28 -90 -34 -176 -30 -30 2 -60 43 -72 102 -14 64
-14 114 1 217 l11 83 106 54 c251 128 469 374 526 592 18 69 19 169 2 203 -34
68 -152 77 -271 21 -243 -116 -450 -389 -541 -710 -13 -47 -53 -158 -89 -246
-104 -253 -192 -383 -291 -429 -29 -14 -59 -26 -64 -26 -34 0 12 223 90 439
83 230 116 343 135 474 37 252 -9 363 -146 355 -143 -10 -300 -143 -439 -370
-12 -21 -24 -38 -25 -38 -1 0 -1 14 2 30 7 46 -7 117 -28 142 -19 23 -19 23
-4 -22 22 -63 16 -185 -11 -227 l-20 -31 0 148 c0 162 -4 176 -69 224 -38 29
-124 27 -191 -4 -102 -48 -235 -208 -350 -422 -33 -61 -43 -74 -37 -48 4 19 7
95 7 168 l0 133 -42 40 c-37 34 -48 39 -89 39 -62 0 -118 -28 -176 -87 -81
-83 -145 -211 -163 -328 l-6 -40 20 25 c11 14 40 61 65 105 86 156 156 235
221 251 27 7 28 6 21 -22 -4 -16 -7 -43 -6 -59 1 -46 -59 -256 -180 -625 -106
-326 -193 -611 -187 -616 2 -3 180 33 208 42 11 3 34 58 69 167 183 568 367
944 551 1130 65 65 148 115 169 102 7 -4 9 -43 6 -103 -6 -118 -52 -305 -159
-647 -65 -205 -113 -371 -155 -526 l-10 -36 77 14 c159 30 143 21 163 93 80
282 214 663 283 806 110 227 278 439 397 498 64 32 92 34 85 6 -3 -11 -2 -18
2 -15 12 7 12 -55 0 -110 -7 -27 -47 -138 -91 -246 -133 -331 -165 -509 -155
-853 6 -213 24 -318 76 -451 105 -273 286 -442 570 -535 167 -54 395 -63 615
-25 48 9 90 14 92 12 2 -2 -5 -15 -16 -29 -10 -14 -17 -27 -15 -30 3 -2 -20
-80 -50 -172 -60 -186 -80 -220 -192 -326 -141 -135 -355 -294 -384 -287 -12
3 -16 0 -12 -10 13 -34 -24 -4 -59 48 -48 71 -128 222 -128 242 0 9 20 56 44
104 57 113 95 209 102 253 12 77 -36 123 -100 96 -46 -19 -73 -50 -111 -129
-47 -96 -61 -187 -48 -296 11 -85 11 -86 -20 -146 -43 -86 -118 -194 -183
-265 -62 -66 -102 -95 -91 -66 4 11 3 15 -4 11 -6 -4 -8 -13 -5 -21 3 -7 -8
-22 -24 -34 -35 -25 -35 -28 -14 98 21 130 15 284 -16 367 -28 75 -91 139
-152 156 -24 6 -76 9 -118 6 -262 -17 -543 -295 -665 -657 -21 -62 -25 -68
-111 -132 -49 -37 -93 -68 -99 -68 -5 0 -28 -14 -49 -30 -22 -17 -41 -28 -43
-26 -9 8 119 466 213 765 202 640 365 895 672 1050 34 17 62 33 62 34 0 12
-161 -17 -230 -41 -84 -29 -363 -142 -592 -241 -64 -27 -271 -108 -460 -180
-529 -200 -682 -265 -923 -390 -373 -193 -528 -362 -501 -545 l7 -44 44 47
c87 93 360 273 675 445 386 211 1568 786 1617 786 2 0 -13 -14 -33 -32 -81
-71 -270 -337 -413 -580 -168 -286 -360 -775 -478 -1217 l-28 -104 -175 -120
c-596 -410 -930 -718 -1108 -1024 -210 -360 -136 -694 158 -711 91 -5 173 14
278 63 352 166 699 628 962 1281 54 135 185 521 210 619 8 34 18 44 62 69 29
17 94 58 143 91 l90 62 -3 -133 c-5 -153 10 -241 58 -342 57 -120 108 -166
202 -181 128 -21 251 29 372 152 127 127 218 283 286 486 l35 103 69 45 c135
88 230 188 318 335 34 57 43 67 51 53 5 -9 7 -25 4 -35 -3 -11 -2 -20 2 -22 7
-3 64 -120 75 -154 5 -18 -9 -34 -86 -100 -127 -107 -253 -229 -294 -286 -19
-25 -43 -72 -54 -104 -36 -104 -22 -182 44 -248 137 -138 459 -49 596 164 104
162 110 339 19 522 -16 32 -29 61 -29 66 0 5 39 35 88 67 128 85 197 140 295
234 48 46 87 82 87 79 0 -12 -24 -74 -33 -86 -6 -7 -12 -27 -14 -44 -2 -16
-23 -103 -47 -192 -81 -296 -186 -697 -186 -713 0 -9 6 -13 13 -10 8 3 57 11
111 18 l96 12 9 36 c6 20 17 65 26 100 41 161 139 471 173 545 77 169 213 396
312 521 110 139 282 275 326 258 10 -3 14 -22 14 -58 0 -63 -29 -150 -133
-395 -143 -336 -193 -524 -185 -690 7 -141 53 -200 154 -200 139 0 271 127
442 425 50 86 62 102 58 75 -16 -101 -17 -143 -7 -211 12 -80 30 -112 81 -146
53 -37 158 -25 265 29 57 30 150 122 207 207 54 79 211 393 277 554 l41 98
-37 -3 -37 -3 -81 -186 c-131 -300 -214 -437 -323 -541 -71 -67 -120 -96 -177
-105 -30 -5 -36 -2 -44 20 -29 75 106 562 332 1200 32 89 51 157 45 157 -6 0
-61 -9 -122 -21 l-112 -20 -58 -162 c-93 -255 -133 -379 -147 -448 -17 -85
-183 -417 -287 -574 -81 -122 -171 -224 -220 -249 -15 -7 -42 -17 -59 -21
l-33 -7 0 49 c0 72 31 172 140 448 134 340 178 519 168 678 -8 122 -49 170
-145 169 -113 -1 -245 -95 -390 -279 -36 -45 -69 -81 -73 -78 -4 2 -7 -1 -7
-8 0 -12 -102 -177 -109 -177 -12 0 71 298 142 507 52 153 60 173 74 173 6 0
60 22 121 50 209 93 415 252 506 388 107 162 118 386 22 466 -95 80 -240 47
-386 -88 -149 -138 -292 -368 -438 -701 -27 -60 -52 -114 -56 -119 -15 -17
-194 -46 -319 -52 -285 -14 -503 69 -691 263 -74 76 -143 180 -170 256 -16 45
-11 51 64 67 118 25 375 7 652 -46 155 -30 182 -38 211 -65 l22 -20 21 27 c25
32 27 76 4 100 -29 29 -99 54 -216 79 -241 51 -474 56 -632 14 -44 -12 -87
-22 -95 -23 -8 -1 -26 -8 -38 -15 -13 -7 -25 -11 -27 -9 -9 10 -26 122 -31
207 l-7 99 44 7 c141 24 257 149 361 387 l43 100 11 -74 c21 -132 68 -208 156
-252 42 -21 66 -26 128 -26 211 0 406 153 615 480 60 95 226 420 286 562 13
32 27 58 30 58 3 0 12 -26 19 -57 7 -32 16 -62 20 -68 4 -5 20 -43 36 -84 22
-58 26 -75 15 -79 -18 -6 -199 -152 -230 -186 -14 -14 -29 -26 -35 -26 -6 0
-4 4 4 10 8 5 11 12 7 17 -9 9 -28 -17 -21 -29 3 -4 -10 -27 -29 -51 -19 -23
-49 -67 -67 -97 -35 -61 -93 -141 -153 -210 -59 -69 -62 -74 -62 -90 0 -8 -8
-14 -18 -14 -9 1 -14 -2 -11 -7 9 -15 18 -11 54 23 19 17 34 38 32 46 -2 8 1
11 6 8 5 -3 22 9 38 26 26 27 26 29 6 19 -23 -12 -23 -12 -6 14 12 18 19 22
24 14 6 -8 12 -4 21 12 11 22 11 23 -4 10 -26 -21 -20 0 12 42 l29 38 -5 -60
c-8 -81 11 -143 52 -180 49 -42 94 -54 194 -49 119 5 215 50 307 142 156 156
188 373 84 565 -17 30 -30 58 -30 62 0 4 42 34 93 66 103 67 211 151 306 239
36 32 62 52 59 44 -49 -140 -268 -936 -268 -977 0 -6 166 6 192 13 10 3 22 23
29 47 34 130 143 479 174 559 71 184 254 472 394 620 90 95 194 168 238 168
30 0 30 -24 1 -37 -23 -11 -23 -11 5 -18 25 -7 27 -11 22 -39 -13 -67 -48
-163 -136 -373 -138 -330 -230 -622 -270 -853 -19 -108 -16 -348 4 -433 74
-300 307 -414 628 -307 174 58 316 156 431 300 162 201 238 445 208 669 -10
74 -40 171 -53 171 -2 0 -5 -33 -6 -72 -8 -309 -213 -720 -450 -902 -157 -121
-343 -161 -466 -101 -105 51 -130 121 -129 355 0 144 4 180 28 283 34 147 86
302 206 612 137 355 183 569 150 704 -40 167 -216 155 -414 -29 -74 -68 -179
-198 -241 -296 -30 -49 -55 -84 -55 -80 0 31 110 400 170 571 l31 90 132 39
c371 108 662 264 785 419 102 128 137 232 130 381 -8 164 -63 268 -165 316
-61 29 -169 35 -242 15z m201 -71 c24 -13 28 -18 17 -26 -10 -7 -9 -8 6 -4 40
11 95 -108 95 -205 0 -240 -201 -483 -526 -635 -134 -63 -312 -127 -335 -121
-10 3 -17 2 -14 -2 4 -8 -37 -31 -55 -31 -10 0 79 235 154 406 138 314 300
535 448 608 62 31 160 36 210 10z m-1087 -1181 c-24 -58 -57 -154 -90 -264
l-38 -126 -89 -96 c-48 -53 -123 -124 -166 -160 -73 -61 -217 -162 -246 -173
-14 -5 -65 74 -125 195 -18 34 -35 61 -37 58 -6 -6 37 -94 95 -192 23 -38 41
-73 41 -77 0 -40 -90 96 -154 233 l-35 74 54 109 c63 127 94 214 98 274 2 50
-21 42 229 77 103 15 247 39 320 55 73 15 137 28 142 29 4 0 5 -7 1 -16z
m-755 -145 c0 -39 -21 -99 -67 -198 -38 -82 -46 -92 -55 -76 -37 65 47 296
107 296 9 0 15 -9 15 -22z m-622 -331 c18 -21 8 -147 -16 -208 -53 -134 -167
-282 -297 -387 -48 -38 -99 -76 -113 -83 -15 -8 -44 -24 -65 -38 -20 -13 -40
-21 -43 -18 -10 10 57 192 117 316 62 129 143 258 203 324 77 84 183 131 214
94z m587 -564 c14 -37 17 -200 5 -271 -17 -101 -69 -203 -126 -247 -90 -68
-214 -69 -254 -2 -55 90 2 219 167 378 67 65 182 159 194 159 4 0 10 -8 14
-17z m-549 -510 c-10 -11 -37 -12 -30 -2 3 5 12 9 21 9 9 0 13 -3 9 -7z m-27
-36 c-2 -1 -15 -11 -29 -22 l-25 -20 19 23 c11 12 24 22 29 22 6 0 8 -1 6 -3z
m853 -344 c31 -36 42 -69 41 -128 -2 -119 -71 -244 -213 -385 -104 -104 -334
-261 -317 -217 4 11 1 14 -9 10 -12 -4 -13 -1 -4 22 6 15 9 30 6 32 -2 2 -12
-19 -21 -47 -12 -36 -25 -55 -46 -65 l-29 -15 34 92 c137 374 304 648 431 704
44 19 109 18 127 -3z m-1651 -1213 c-12 -39 -26 -68 -31 -65 -5 3 -7 -1 -4 -9
6 -14 -54 -136 -67 -136 -10 0 1 102 17 159 17 58 55 126 76 134 27 10 30 -14
9 -83z m-655 -283 c59 -64 84 -205 65 -367 -15 -123 -39 -208 -60 -214 -115
-32 -203 -2 -248 87 -44 88 -41 199 8 314 l18 42 -34 -20 c-18 -11 -39 -27
-46 -35 -9 -11 -15 -11 -25 -3 -8 6 -11 16 -7 22 4 6 1 7 -6 3 -9 -6 -8 -12 4
-26 13 -14 14 -25 4 -70 -6 -29 -9 -90 -7 -134 7 -140 76 -232 193 -256 30 -6
75 -8 99 -5 l45 7 -28 -78 c-88 -248 -258 -479 -404 -547 -74 -36 -137 -39
-137 -7 0 17 -21 63 -26 57 -3 -2 2 -21 10 -41 17 -41 9 -46 -22 -13 -76 81
-66 377 23 672 78 258 166 427 284 546 86 86 136 111 215 105 42 -3 55 -9 82
-39z m635 -524 c2 -16 7 -49 19 -112 25 -128 -20 -303 -104 -406 -19 -22 -57
-53 -86 -69 -47 -26 -59 -28 -122 -24 -78 6 -109 26 -129 85 -34 104 52 232
295 440 103 88 125 103 127 86z m-2167 -670 c-9 -21 -19 -49 -21 -63 -30 -153
-178 -582 -280 -810 -78 -174 -115 -244 -202 -374 -171 -258 -367 -396 -562
-396 -147 0 -230 88 -230 244 0 89 13 146 60 256 69 162 175 302 383 507 148
147 228 215 432 370 148 113 416 302 429 303 4 0 0 -17 -9 -37z" fill="white"/>
<path d="M8705 8840 l20 -9 -20 -1 c-11 -1 -15 -3 -10 -6 6 -2 33 3 60 10 l50
14 -60 0 c-42 1 -54 -2 -40 -8z" fill="white"/>
<path d="M8617 8797 c4 -6 0 -8 -11 -4 -10 4 -19 1 -22 -8 -4 -8 -9 -13 -13
-10 -4 2 -26 -15 -49 -38 -38 -39 -40 -43 -19 -44 12 0 16 1 9 4 -10 4 -10 8
-1 19 6 8 16 11 23 7 6 -3 8 -3 4 2 -4 4 -3 14 3 22 15 17 43 18 33 1 -6 -10
-3 -9 8 0 10 8 14 20 11 30 -6 14 -4 15 8 5 11 -9 19 -8 37 5 l22 17 -25 1
c-15 1 -22 -2 -18 -9z"/>
<path d="M8455 8671 c-3 -6 -3 -11 2 -10 20 4 24 -2 12 -18 -7 -10 -1 -7 14 6
27 24 39 43 14 22 -10 -7 -17 -7 -24 0 -8 8 -13 7 -18 0z"/>
<path d="M8430 8636 c0 -2 8 -10 18 -17 15 -13 16 -12 3 4 -13 16 -21 21 -21
13z"/>
<path d="M8420 8611 c0 -6 4 -13 10 -16 6 -3 7 1 4 9 -7 18 -14 21 -14 7z"/>
<path d="M8395 8590 c-4 -6 -3 -10 2 -9 22 4 22 -4 -3 -36 -15 -20 -25 -37
-23 -39 2 -3 16 13 31 34 23 32 25 40 14 49 -10 9 -16 9 -21 1z"/>
<path d="M8345 8510 c-3 -5 -1 -10 4 -10 6 0 11 5 11 10 0 6 -2 10 -4 10 -3 0
-8 -4 -11 -10z"/>
<path d="M8315 8460 c-9 -16 -13 -30 -11 -30 3 0 12 14 21 30 9 17 13 30 11
30 -3 0 -12 -13 -21 -30z"/>
<path d="M8325 8434 c-9 -15 -12 -23 -6 -20 11 7 35 46 28 46 -3 0 -12 -12
-22 -26z"/>
<path d="M8295 8370 c-9 -16 -13 -30 -11 -30 3 0 12 14 21 30 9 17 13 30 11
30 -3 0 -12 -13 -21 -30z"/>
<path d="M8265 8369 c-4 -6 -5 -12 -2 -15 2 -3 7 2 10 11 7 17 1 20 -8 4z"/>
<path d="M8176 8173 c-6 -14 -5 -15 5 -6 7 7 10 15 7 18 -3 3 -9 -2 -12 -12z"/>
<path d="M8155 8118 c-7 -18 -11 -36 -9 -40 3 -5 0 -8 -5 -8 -17 0 -13 -17 5
-24 9 -4 13 -2 8 5 -4 6 0 15 7 20 10 6 11 9 1 9 -9 0 -9 8 2 35 8 19 13 35
10 35 -3 0 -11 -15 -19 -32z"/>
<path d="M8121 8035 c0 -5 4 -19 8 -29 7 -19 8 -19 13 2 4 12 2 20 -2 17 -5
-3 -11 1 -13 7 -3 7 -5 9 -6 3z"/>
<path d="M7628 7633 c7 -3 16 -2 19 1 4 3 -2 6 -13 5 -11 0 -14 -3 -6 -6z"/>
<path d="M7545 7623 c-34 -8 -41 -23 -12 -23 15 0 27 5 27 11 0 7 10 9 25 7
13 -3 22 -1 19 3 -5 9 -26 10 -59 2z"/>
<path d="M7395 7590 c3 -5 16 -10 28 -9 21 0 21 1 2 9 -28 12 -37 12 -30 0z"/>
<path d="M7478 7593 c7 -3 16 -2 19 1 4 3 -2 6 -13 5 -11 0 -14 -3 -6 -6z"/>
<path d="M7317 7584 c-1 -2 -27 -5 -57 -8 -30 -3 -85 -8 -122 -12 -38 -4 -68
-11 -68 -16 0 -5 3 -7 8 -5 4 3 7 -10 7 -28 0 -18 -3 -31 -7 -28 -5 2 -8 -5
-8 -16 0 -10 -3 -28 -6 -38 -5 -15 -4 -15 5 -3 9 13 11 12 11 -4 0 -42 13 -3
19 56 l6 63 110 11 c61 7 121 14 135 16 l25 4 -27 5 c-15 4 -29 5 -31 3z"/>
<path d="M7022 7328 c-21 -49 -21 -53 -5 -68 15 -14 16 -13 5 1 -10 13 -8 26
9 63 11 26 19 49 17 52 -2 2 -14 -20 -26 -48z"/>
<path d="M6970 7218 c-10 -21 -10 -21 3 -6 11 14 16 15 27 5 12 -10 12 -9 1 6
-17 22 -18 22 -31 -5z"/>
<path d="M6946 7173 c-6 -14 -5 -15 5 -6 7 7 10 15 7 18 -3 3 -9 -2 -12 -12z"/>
<path d="M6965 7149 c-4 -6 -5 -12 -2 -15 2 -3 7 2 10 11 7 17 1 20 -8 4z"/>
<path d="M6933 7467 c-18 -37 -23 -58 -13 -52 6 3 10 14 10 24 0 9 5 22 12 29
6 6 9 14 7 17 -3 3 -10 -5 -16 -18z"/>
<path d="M6265 7160 c-3 -6 1 -7 9 -4 18 7 21 14 7 14 -6 0 -13 -4 -16 -10z"/>
<path d="M6294 7144 c-18 -14 -18 -15 4 -4 12 6 22 13 22 15 0 8 -5 6 -26 -11z"/>
<path d="M6230 7125 c0 -7 30 -13 34 -7 3 4 -4 9 -15 9 -10 1 -19 0 -19 -2z"/>
<path d="M6211 7088 c-19 -18 -23 -19 -18 -5 7 17 -7 24 -17 8 -8 -12 17 -32
29 -23 13 9 39 42 33 42 -2 0 -14 -10 -27 -22z"/>
<path d="M6129 7028 c-47 -62 -56 -76 -39 -60 24 20 31 13 14 -13 -30 -46 -7
-26 36 32 24 33 38 59 31 61 -6 2 -9 8 -5 13 15 25 -8 4 -37 -33z m19 -17
c-13 -16 -26 -27 -30 -24 -4 2 2 13 12 23 11 11 20 25 20 31 0 5 5 7 10 4 6
-4 1 -17 -12 -34z"/>
<path d="M6073 6934 c3 -12 0 -29 -5 -38 -5 -9 -7 -16 -4 -16 13 0 23 37 15
55 -9 19 -9 19 -6 -1z"/>
<path d="M6040 6901 c-13 -25 -13 -31 2 -31 6 0 8 3 5 6 -3 4 -2 15 4 25 5 11
7 19 5 19 -3 0 -10 -9 -16 -19z"/>
<path d="M6020 6855 c0 -5 5 -17 10 -25 5 -8 10 -10 10 -5 0 6 -5 17 -10 25
-5 8 -10 11 -10 5z"/>
<path d="M5996 6798 c3 -4 1 -8 -4 -8 -4 0 -16 -16 -25 -35 -24 -51 -21 -57 7
-10 12 22 28 39 33 38 6 -1 13 3 16 10 3 7 -3 13 -13 13 -10 0 -16 -4 -14 -8z"/>
<path d="M5990 6749 c-7 -11 -10 -23 -7 -25 2 -2 9 7 15 21 14 30 7 33 -8 4z"/>
<path d="M6710 6415 c-7 -9 -11 -17 -9 -20 3 -2 10 5 17 15 14 24 10 26 -8 5z"/>
<path d="M6655 6350 c-3 -5 -2 -17 3 -26 8 -14 10 -14 22 1 7 8 10 18 6 22 -3
3 -6 1 -6 -5 0 -7 -5 -12 -11 -12 -6 0 -9 7 -5 15 6 17 0 20 -9 5z"/>
<path d="M6593 6205 c0 -22 2 -30 4 -17 2 12 2 30 0 40 -3 9 -5 -1 -4 -23z"/>
<path d="M6595 6150 c-3 -5 -1 -19 5 -30 15 -28 21 -25 10 4 -5 13 -6 27 -3
30 4 3 4 6 0 6 -3 0 -9 -4 -12 -10z"/>
<path d="M7135 5730 l-20 -9 20 0 c16 -1 17 -3 5 -11 -9 -5 -19 -5 -26 1 -8 7
-14 6 -19 -1 -4 -6 -1 -9 7 -8 7 2 12 -2 11 -9 -2 -8 8 -6 27 5 17 10 24 19
18 23 -7 4 -3 9 8 12 11 3 13 5 4 5 -8 0 -24 -3 -35 -8z"/>
<path d="M7200 5730 c-9 -6 -10 -10 -3 -10 6 0 15 5 18 10 8 12 4 12 -15 0z"/>
<path d="M7040 5666 c0 -2 8 -10 18 -17 15 -13 16 -12 3 4 -13 16 -21 21 -21
13z"/>
<path d="M7036 5625 c-3 -9 -9 -14 -13 -12 -5 3 -15 -11 -24 -29 -9 -19 -16
-34 -14 -34 6 0 66 82 62 86 -2 3 -7 -2 -11 -11z"/>
<path d="M6986 5603 c-6 -14 -5 -15 5 -6 7 7 10 15 7 18 -3 3 -9 -2 -12 -12z"/>
<path d="M6959 5563 c-13 -16 -12 -17 4 -4 9 7 17 15 17 17 0 8 -8 3 -21 -13z"/>
<path d="M6933 5529 c-19 -24 -126 -230 -121 -235 3 -2 13 14 23 36 11 25 24
39 31 36 8 -3 11 1 7 11 -6 16 46 123 61 123 4 0 5 -8 2 -17 -5 -15 -3 -14 10
2 8 11 20 29 25 40 10 19 9 19 -5 2 -13 -17 -14 -17 -18 -1 -2 14 -5 15 -15 3z"/>
<path d="M6842 5307 c-12 -23 -22 -46 -22 -52 1 -5 12 12 26 38 14 27 24 51
22 52 -2 2 -14 -15 -26 -38z"/>
<path d="M6796 5264 c-4 -9 -4 -19 -1 -22 2 -3 7 3 11 12 4 9 4 19 1 22 -2 3
-7 -3 -11 -12z"/>
<path d="M6799 5214 c-5 -15 -8 -29 -5 -31 2 -2 8 10 14 26 13 38 5 41 -9 5z"/>
<path d="M6756 5165 c-9 -26 -7 -32 5 -12 6 10 9 21 6 23 -2 3 -7 -2 -11 -11z"/>
<path d="M4761 4249 c-16 -6 -21 -13 -14 -20 12 -12 45 0 36 14 -4 6 0 8 11 4
10 -4 15 -3 11 3 -7 12 -12 12 -44 -1z"/>
<path d="M4704 4216 c-16 -13 -17 -17 -5 -28 12 -11 13 -10 8 5 -4 11 -1 17 9
17 9 0 12 -5 8 -12 -4 -7 -3 -8 4 -4 6 4 9 13 5 21 -6 18 -5 18 -29 1z"/>
<path d="M4626 4145 c-15 -19 -23 -35 -18 -35 5 0 15 11 22 25 9 18 17 22 25
15 9 -7 16 -5 26 7 7 10 9 15 5 11 -5 -4 -15 -3 -21 2 -9 7 -20 0 -39 -25z"/>
<path d="M4727 4052 c-10 -11 -13 -23 -8 -31 6 -9 11 -4 19 18 13 36 11 38
-11 13z"/>
<path d="M4542 4028 c-14 -19 -63 -118 -57 -118 2 0 14 18 25 40 12 23 25 38
31 35 5 -4 7 -11 4 -16 -4 -5 -4 -9 -1 -9 3 0 10 9 16 20 9 16 8 18 -5 14 -18
-7 -20 17 -3 34 7 7 9 12 6 12 -3 0 -10 -6 -16 -12z"/>
<path d="M4701 3944 c0 -11 3 -14 6 -6 3 7 2 16 -1 19 -3 4 -6 -2 -5 -13z"/>
<path d="M4700 3785 c1 -6 7 -21 16 -35 l15 -25 -7 25 c-7 26 -24 52 -24 35z"/>
<path d="M4356 3574 c-4 -14 -5 -28 -3 -31 3 -2 8 8 11 23 4 14 5 28 3 31 -3
2 -8 -8 -11 -23z"/>
<path d="M4342 3510 c0 -14 2 -19 5 -12 2 6 2 18 0 25 -3 6 -5 1 -5 -13z"/>
<path d="M4322 3415 c0 -16 2 -22 5 -12 2 9 2 23 0 30 -3 6 -5 -1 -5 -18z"/>
<path d="M4305 3304 c-8 -80 -2 -250 9 -261 12 -13 15 4 6 42 -5 22 -8 97 -6
168 2 70 2 127 1 127 -2 0 -7 -34 -10 -76z"/>
<path d="M5494 3618 l-19 -23 23 19 c21 18 27 26 19 26 -2 0 -12 -10 -23 -22z"/>
<path d="M5448 3601 c11 -6 7 -13 -14 -30 -15 -12 -29 -19 -32 -16 -3 3 3 12
14 21 10 8 12 12 4 8 -29 -14 -140 -117 -139 -128 0 -7 2 -6 6 2 2 6 9 10 14
6 5 -3 8 -2 7 3 -2 4 2 10 7 11 6 2 16 8 23 14 6 6 12 7 12 3 0 -4 27 16 60
45 55 48 67 70 37 70 -8 0 -8 -3 1 -9z m-68 -76 c-13 -14 -26 -23 -28 -20 -4
4 38 44 47 45 3 0 -6 -11 -19 -25z"/>
<path d="M5216 3382 c-30 -44 -31 -48 -13 -55 10 -4 13 2 9 20 -3 18 -1 24 7
19 6 -4 11 -4 10 1 -3 19 2 27 10 14 7 -10 9 -7 8 12 -1 15 -3 27 -3 27 -1 0
-13 -17 -28 -38z"/>
<path d="M5178 3308 c-2 -23 -5 -33 -12 -50 -5 -10 -6 -23 -3 -30 3 -8 6 -6 6
5 1 10 5 16 10 13 5 -3 11 5 13 19 3 14 1 25 -3 25 -5 0 -6 7 -3 15 4 8 3 15
0 15 -3 0 -7 -6 -8 -12z"/>
<path d="M5176 3185 c4 -8 8 -15 10 -15 2 0 4 7 4 15 0 8 -4 15 -10 15 -5 0
-7 -7 -4 -15z"/>
<path d="M3320 2999 c-22 -18 -22 -19 -3 -10 12 6 25 16 28 21 9 15 3 12 -25
-11z"/>
<path d="M3260 2959 c-22 -18 -22 -19 -3 -10 12 6 25 16 28 21 9 15 3 12 -25
-11z"/>
<path d="M3284 2949 c-19 -22 -19 -22 4 -8 12 8 22 17 22 21 0 12 -6 9 -26
-13z"/>
<path d="M3205 2924 c-11 -8 -20 -19 -20 -24 0 -4 -3 -12 -7 -16 -5 -4 -8 -12
-8 -18 0 -6 5 -3 11 7 6 9 13 15 17 13 4 -2 19 4 32 14 l25 19 -25 -6 c-22 -6
-24 -5 -11 10 17 21 12 21 -14 1z"/>
<path d="M3125 2864 c-18 -16 -22 -22 -9 -15 18 9 53 42 43 41 -2 -1 -17 -12
-34 -26z"/>
<path d="M3115 2830 c-3 -6 1 -7 9 -4 18 7 21 14 7 14 -6 0 -13 -4 -16 -10z"/>
<path d="M3015 2784 c-23 -20 -25 -23 -7 -14 13 6 26 9 29 7 6 -6 -39 -32 -49
-29 -5 1 -7 -2 -5 -7 1 -5 -2 -8 -8 -7 -5 0 -9 5 -7 9 3 11 -117 -83 -126 -97
-3 -6 2 -5 11 3 16 12 21 8 18 -12 -1 -5 14 4 34 20 19 15 33 33 31 40 -3 7 1
10 7 7 7 -2 46 20 87 51 40 30 69 55 63 55 -6 0 -16 -7 -23 -15 -7 -8 -17 -15
-22 -15 -6 0 -8 7 -4 15 7 19 7 19 -29 -11z m-91 -93 c3 -5 -1 -11 -9 -14 -9
-4 -12 -1 -8 9 6 16 10 17 17 5z m-34 -31 c0 -5 -2 -10 -4 -10 -3 0 -8 5 -11
10 -3 6 -1 10 4 10 6 0 11 -4 11 -10z"/>
<path d="M2839 2613 c-13 -16 -12 -17 4 -4 16 13 21 21 13 21 -2 0 -10 -8 -17
-17z"/>
<path d="M2749 2573 c-13 -16 -12 -17 4 -4 9 7 17 15 17 17 0 8 -8 3 -21 -13z"/>
<path d="M2779 2566 c-18 -19 -28 -22 -41 -15 -11 6 -18 6 -18 1 0 -24 40 -18
66 9 15 16 25 29 22 29 -3 0 -16 -11 -29 -24z"/>
<path d="M2662 2495 c-22 -25 -44 -45 -49 -45 -5 0 -35 -27 -67 -59 -43 -43
-56 -63 -50 -74 7 -12 30 4 109 79 55 52 96 94 91 94 -5 0 -19 -8 -30 -17 -20
-18 -20 -17 -6 2 8 11 24 28 34 38 11 9 17 20 14 22 -3 3 -24 -15 -46 -40z
m-82 -109 c-35 -36 -68 -62 -72 -59 -12 6 11 33 25 30 6 -1 11 4 12 11 0 8 10
19 22 25 12 7 22 15 22 20 1 4 3 7 6 7 3 -1 13 6 21 15 9 8 18 15 22 15 3 0
-23 -29 -58 -64z"/>
<path d="M2716 2513 c-6 -14 -5 -15 5 -6 7 7 10 15 7 18 -3 3 -9 -2 -12 -12z"/>
<path d="M2470 2311 c0 -6 -16 -26 -36 -44 -33 -30 -35 -34 -20 -46 14 -12 16
-12 10 2 -3 9 3 24 15 36 29 29 37 26 16 -6 l-17 -28 30 30 c16 17 25 32 21
33 -5 2 -7 8 -4 12 3 5 1 11 -5 15 -5 3 -10 1 -10 -4z"/>
<path d="M2376 2201 c-11 -12 -14 -21 -7 -26 6 -3 11 -11 11 -17 0 -7 -5 -6
-15 2 -12 10 -16 9 -21 -4 -4 -9 -4 -20 0 -23 3 -3 -5 -20 -17 -37 -28 -37
-40 -56 -34 -56 2 0 32 36 66 80 34 44 58 80 52 80 -5 0 -12 -7 -15 -16 -3 -8
-11 -12 -17 -9 -7 5 -4 13 7 26 9 10 15 19 12 19 -3 0 -13 -9 -22 -19z m-11
-50 c3 -5 2 -12 -3 -15 -5 -3 -9 1 -9 9 0 17 3 19 12 6z"/>
<path d="M2311 2117 c-13 -21 -12 -21 5 -5 10 10 16 20 13 22 -3 3 -11 -5 -18
-17z"/>
<path d="M2253 2028 c-15 -20 -25 -38 -20 -38 3 0 12 11 21 25 17 26 16 35 -1
13z"/>
<path d="M2186 1904 c-9 -24 -2 -26 12 -4 7 11 8 20 3 20 -5 0 -12 -7 -15 -16z"/>
<path d="M2195 1869 c-4 -6 -5 -12 -2 -15 2 -3 7 2 10 11 7 17 1 20 -8 4z"/>
<path d="M2161 1839 c-6 -18 -9 -34 -7 -36 2 -2 9 10 15 28 6 18 9 34 7 36 -2
2 -9 -10 -15 -28z"/>
<path d="M9043 8733 c19 -42 22 -66 23 -186 0 -75 3 -139 5 -141 2 -3 5 53 7
123 3 110 0 135 -18 184 -12 31 -25 59 -30 62 -5 3 1 -16 13 -42z"/>
<path d="M6200 8649 c-45 -4 -20 -6 80 -6 80 -1 141 0 135 2 -21 7 -153 10
-215 4z"/>
<path d="M6100 8640 c0 -5 5 -10 10 -10 6 0 10 5 10 10 0 6 -4 10 -10 10 -5 0
-10 -4 -10 -10z"/>
<path d="M6025 8630 c-7 -11 9 -11 45 0 24 8 24 8 -7 9 -17 1 -35 -3 -38 -9z"/>
<path d="M6468 8633 c7 -3 16 -2 19 1 4 3 -2 6 -13 5 -11 0 -14 -3 -6 -6z"/>
<path d="M5980 8620 c0 -5 7 -10 16 -10 8 0 12 5 9 10 -3 6 -10 10 -16 10 -5
0 -9 -4 -9 -10z"/>
<path d="M5945 8610 c3 -5 11 -10 16 -10 6 0 7 5 4 10 -3 6 -11 10 -16 10 -6
0 -7 -4 -4 -10z"/>
<path d="M5890 8606 c0 -2 9 -6 20 -9 11 -3 18 -1 14 4 -5 9 -34 13 -34 5z"/>
<path d="M5877 8589 c7 -7 15 -10 18 -7 3 3 -2 9 -12 12 -14 6 -15 5 -6 -5z"/>
<path d="M5845 8580 c3 -5 11 -10 16 -10 6 0 7 5 4 10 -3 6 -11 10 -16 10 -6
0 -7 -4 -4 -10z"/>
<path d="M5780 8566 c0 -2 7 -7 16 -10 8 -3 12 -2 9 4 -6 10 -25 14 -25 6z"/>
<path d="M5754 8549 c-9 -16 2 -22 21 -11 15 8 16 10 1 15 -8 3 -18 2 -22 -4z"/>
<path d="M5695 8521 c-3 -5 0 -13 6 -17 7 -4 9 -3 5 4 -3 5 0 13 6 15 9 4 10
6 1 6 -6 1 -14 -3 -18 -8z"/>
<path d="M5629 8483 c-1 -5 -1 -11 0 -15 1 -8 -15 -12 -32 -9 -5 1 -5 -4 -1
-10 5 -8 2 -10 -9 -6 -8 3 -21 -1 -27 -9 -7 -8 -9 -14 -5 -14 4 0 2 -7 -5 -15
-15 -18 -35 -20 -24 -3 4 7 3 8 -4 4 -7 -4 -12 -17 -12 -29 0 -14 -3 -18 -8
-10 -8 13 -13 9 -52 -42 -14 -19 -14 -19 3 -6 9 7 17 10 17 6 0 -4 29 20 65
54 36 33 79 68 95 76 32 17 41 29 13 18 -11 -4 -14 -3 -9 5 4 7 5 12 2 12 -3
0 -7 -3 -7 -7z m-129 -127 c0 -2 -8 -10 -17 -17 -16 -13 -17 -12 -4 4 13 16
21 21 21 13z"/>
<path d="M6991 8406 c11 -25 24 -78 29 -118 l9 -73 -3 75 c-2 53 -9 87 -25
118 -28 55 -35 54 -10 -2z"/>
<path d="M9048 8404 c-3 -10 -9 -28 -13 -39 -4 -13 -1 -12 9 5 8 14 15 19 16
11 0 -8 2 -12 5 -9 3 3 2 16 -3 28 -8 22 -9 22 -14 4z"/>
<path d="M9046 8343 c-6 -14 -5 -15 5 -6 7 7 10 15 7 18 -3 3 -9 -2 -12 -12z"/>
<path d="M9019 8333 c0 -5 -2 -23 -4 -42 -3 -34 1 -32 26 11 7 14 6 16 -6 12
-11 -5 -13 -2 -9 10 3 9 3 16 0 16 -3 0 -6 -3 -7 -7z"/>
<path d="M8976 8255 c-9 -13 -16 -28 -16 -32 0 -4 5 0 11 10 5 9 15 17 20 17
6 0 7 -5 3 -12 -4 -6 -3 -8 4 -5 8 6 6 47 -3 47 -1 0 -10 -11 -19 -25z"/>
<path d="M8961 8198 c-21 -21 -23 -21 -17 -4 7 19 6 19 -13 2 -11 -10 -17 -24
-14 -32 6 -16 -13 -44 -30 -44 -5 0 -2 10 9 22 18 21 18 21 -11 -1 -119 -93
-154 -124 -150 -131 3 -5 0 -12 -6 -16 -8 -5 -9 -3 -4 6 6 10 4 12 -9 7 -10
-4 -20 -7 -22 -7 -3 0 -2 -5 1 -11 4 -6 1 -9 -6 -8 -8 1 -30 -4 -49 -13 -33
-14 -33 -15 -13 -22 25 -8 83 17 83 36 0 6 3 8 6 5 9 -8 46 12 40 21 -3 5 0
14 6 22 8 12 9 12 4 -2 -3 -10 -3 -18 0 -18 22 0 224 184 224 204 0 10 -4 7
-29 -16z m-21 -28 c0 -5 -2 -10 -4 -10 -3 0 -8 5 -11 10 -3 6 -1 10 4 10 6 0
11 -4 11 -10z m-66 -62 c-3 -7 -20 -24 -37 -38 -25 -19 -29 -20 -17 -5 35 48
67 73 54 43z m-204 -148 c-8 -6 -22 -10 -30 -10 -8 0 -4 6 10 13 27 15 44 12
20 -3z"/>
<path d="M5380 8188 c0 -9 5 -20 10 -23 13 -8 13 5 0 25 -8 13 -10 13 -10 -2z"/>
<path d="M5372 8105 c-1 -79 15 -150 45 -202 33 -58 39 -54 9 5 -27 53 -49
153 -40 186 3 12 1 33 -4 46 -7 20 -9 13 -10 -35z"/>
<path d="M4020 7956 c-25 -7 -56 -19 -70 -26 -36 -19 -126 -107 -175 -170
-143 -186 -374 -651 -680 -1370 -329 -774 -516 -1097 -696 -1203 -83 -49 -112
-47 -119 8 -5 35 -6 37 -12 16 -4 -13 -3 -33 3 -43 16 -30 -16 -22 -37 10 -16
23 -19 45 -18 142 1 96 7 140 38 265 141 577 477 1402 745 1828 94 149 148
222 245 331 56 63 65 76 41 64 -17 -9 -158 -66 -315 -127 -631 -247 -901 -376
-1199 -568 -277 -180 -443 -336 -576 -542 -276 -428 -282 -981 -10 -1107 130
-61 330 2 480 151 72 72 127 161 159 260 37 115 38 315 1 455 -27 106 -122
286 -141 267 -3 -3 7 -58 22 -124 48 -213 45 -412 -11 -579 -67 -200 -231
-367 -383 -390 -91 -14 -178 50 -223 162 -20 52 -23 76 -23 194 0 118 3 146
28 224 82 270 214 483 436 707 305 308 693 531 1370 788 56 21 62 16 24 -20
-70 -65 -322 -436 -438 -644 -98 -176 -267 -523 -319 -655 -174 -443 -215
-817 -112 -1020 58 -114 136 -166 236 -157 89 8 160 47 255 141 111 111 221
282 330 516 165 350 198 419 200 417 1 -1 -7 -45 -17 -97 -11 -52 -20 -101
-21 -107 -1 -7 -4 -13 -7 -13 -3 0 -6 -28 -6 -62 -1 -35 -7 -119 -14 -188 -14
-128 -10 -266 9 -331 14 -50 49 -99 90 -127 30 -20 44 -23 95 -19 58 4 131 33
180 71 19 14 18 15 -17 9 -20 -3 -62 -2 -92 1 -49 7 -55 10 -65 38 -83 236
310 1692 627 2323 71 143 132 226 212 288 39 30 36 31 -30 13z"/>
<path d="M8515 7909 c-22 -11 -32 -17 -21 -14 10 3 24 1 30 -4 8 -6 17 -6 26
1 12 8 12 9 -2 4 -21 -6 -24 9 -4 17 7 3 20 0 27 -6 11 -10 11 -9 0 6 -7 9
-14 17 -15 16 0 0 -19 -9 -41 -20z"/>
<path d="M4103 7910 c-13 -5 -23 -14 -23 -19 0 -6 -6 -8 -13 -5 -8 3 -20 -3
-28 -13 -13 -16 -12 -17 3 -5 9 8 22 11 28 7 5 -3 13 1 16 9 3 9 9 14 13 12 3
-2 15 2 26 10 21 16 11 17 -22 4z"/>
<path d="M8468 7863 c7 -3 16 -2 19 1 4 3 -2 6 -13 5 -11 0 -14 -3 -6 -6z"/>
<path d="M3999 7829 c-8 -15 -8 -19 0 -15 6 4 11 3 11 -3 0 -15 -18 -23 -25
-11 -4 6 -13 2 -23 -12 -24 -32 -64 -108 -58 -108 3 0 12 12 20 28 8 15 15 21
16 14 0 -7 -5 -22 -10 -33 -6 -10 -8 -19 -6 -19 11 0 32 56 29 75 -3 14 -1 16
5 7 6 -10 20 2 52 45 24 32 33 49 20 38 -20 -17 -23 -18 -17 -2 9 24 0 21 -14
-4z m-15 -54 c-4 -8 -11 -12 -16 -9 -6 4 -5 10 3 15 19 12 19 11 13 -6z"/>
<path d="M8232 7801 c-7 -4 6 -7 27 -7 22 1 42 3 44 6 8 8 -58 9 -71 1z"/>
<path d="M8193 7775 c0 -7 8 -10 19 -7 10 2 18 6 18 7 0 1 -8 5 -18 7 -11 3
-19 0 -19 -7z"/>
<path d="M8154 7771 c4 -5 -4 -7 -16 -3 -12 3 -19 1 -15 -4 3 -6 -10 -11 -30
-11 -44 -1 -63 -18 -23 -19 16 -1 27 2 24 7 -3 5 3 8 13 7 41 -3 63 3 63 17 0
8 -5 15 -11 15 -5 0 -8 -4 -5 -9z"/>
<path d="M3347 7755 c-8 -8 -17 -12 -19 -9 -7 7 -107 -84 -120 -110 -6 -11 6
-2 27 22 21 24 40 41 43 38 2 -3 -1 -14 -9 -23 -8 -10 12 7 44 37 31 30 57 56
57 57 0 7 -10 2 -23 -12z m-22 -25 c-3 -5 -16 -15 -28 -21 -19 -9 -19 -8 3 10
28 23 34 26 25 11z"/>
<path d="M3867 7620 c-30 -55 -35 -75 -12 -44 11 14 14 15 15 4 0 -10 4 -9 14
5 10 15 19 85 11 85 0 0 -13 -22 -28 -50z m14 -23 c-10 -9 -11 -8 -5 6 3 10 9
15 12 12 3 -3 0 -11 -7 -18z"/>
<path d="M3231 7626 c-13 -14 -29 -22 -36 -20 -7 3 -16 0 -21 -7 -5 -9 -2 -10
10 -6 12 5 16 3 14 -5 -3 -7 -13 -13 -22 -13 -25 0 -108 -116 -94 -132 5 -7 7
-17 3 -23 -3 -5 -4 -10 -1 -10 2 0 18 22 35 50 17 27 27 49 23 49 -19 -3 -22
2 -8 16 17 17 30 20 21 5 -17 -28 7 -3 53 55 54 67 63 84 23 41z m-58 -71 c-3
-9 -8 -14 -10 -11 -3 3 -2 9 2 15 9 16 15 13 8 -4z m-58 -85 c-9 -18 -21 -28
-27 -24 -7 5 -5 12 7 21 11 7 15 13 9 13 -5 0 -2 5 6 10 22 14 22 13 5 -20z"/>
<path d="M7971 7554 c0 -11 3 -14 6 -6 3 7 2 16 -1 19 -3 4 -6 -2 -5 -13z"/>
<path d="M3802 7480 c-39 -85 -39 -91 -6 -55 29 32 63 102 43 90 -8 -5 -9 -1
-4 14 13 41 -1 20 -33 -49z m19 -7 c-8 -15 -10 -15 -11 -2 0 17 10 32 18 25 2
-3 -1 -13 -7 -23z"/>
<path d="M6053 7533 c9 -2 23 -2 30 0 6 3 -1 5 -18 5 -16 0 -22 -2 -12 -5z"/>
<path d="M7942 7520 c0 -14 2 -19 5 -12 2 6 2 18 0 25 -3 6 -5 1 -5 -13z"/>
<path d="M6158 7523 c12 -2 32 -2 45 0 12 2 2 4 -23 4 -25 0 -35 -2 -22 -4z"/>
<path d="M8272 7491 c-11 -6 -10 -10 4 -15 9 -4 22 -2 28 4 8 8 6 9 -8 4 -13
-5 -17 -4 -12 4 8 14 6 15 -12 3z"/>
<path d="M8531 7490 c0 -8 4 -22 9 -30 12 -18 12 -2 0 25 -6 13 -9 15 -9 5z"/>
<path d="M2651 7441 c-11 -7 -11 -10 0 -15 8 -3 4 -4 -9 -2 -14 3 -20 0 -15
-7 4 -6 0 -8 -10 -4 -21 8 -49 -2 -41 -14 8 -14 28 -11 85 16 37 17 45 23 24
19 -23 -4 -26 -3 -15 5 18 13 1 15 -19 2z"/>
<path d="M3050 7420 c-6 -11 -8 -20 -6 -20 3 0 10 9 16 20 6 11 8 20 6 20 -3
0 -10 -9 -16 -20z"/>
<path d="M8199 7403 c-13 -16 -12 -17 4 -4 9 7 17 15 17 17 0 8 -8 3 -21 -13z"/>
<path d="M3780 7380 c-6 -11 -15 -18 -21 -15 -5 4 -9 3 -7 -2 1 -4 -11 -34
-25 -67 -15 -32 -27 -61 -27 -64 0 -15 28 36 39 70 7 21 18 41 25 45 14 8 40
53 32 53 -3 0 -10 -9 -16 -20z"/>
<path d="M2500 7375 c-15 -9 -19 -15 -10 -15 12 0 11 -3 -3 -11 -10 -6 -24 -8
-31 -6 -7 3 -13 -1 -13 -9 0 -18 4 -17 47 6 19 11 28 20 20 20 -9 0 -5 6 10
15 14 8 21 14 15 14 -5 0 -21 -6 -35 -14z"/>
<path d="M7881 7328 c0 -9 -4 -25 -7 -35 -5 -17 -5 -17 6 0 6 10 9 25 7 35 -4
15 -5 15 -6 0z"/>
<path d="M8074 7318 l-19 -23 23 19 c21 18 27 26 19 26 -2 0 -12 -10 -23 -22z"/>
<path d="M8533 7305 c0 -22 2 -30 4 -17 2 12 2 30 0 40 -3 9 -5 -1 -4 -23z"/>
<path d="M2303 7281 c-69 -35 -90 -50 -81 -59 8 -8 21 -6 49 9 22 11 38 23 38
27 -3 18 2 26 9 16 5 -8 23 -4 61 13 40 18 50 27 40 34 -19 12 -13 14 -116
-40z m97 34 c0 -6 -56 -35 -67 -35 -4 1 8 9 27 20 39 22 40 22 40 15z"/>
<path d="M8074 7278 l-19 -23 23 19 c12 11 22 21 22 23 0 8 -8 2 -26 -19z"/>
<path d="M8029 7263 c-1 -5 -3 -18 -4 -30 -1 -13 -8 -29 -15 -38 -7 -8 -10
-15 -7 -15 2 0 17 17 33 38 15 20 20 31 11 23 -19 -15 -23 -1 -5 17 9 9 9 12
0 12 -7 0 -13 -3 -13 -7z"/>
<path d="M2970 7235 c-7 -9 -11 -17 -9 -20 3 -2 10 5 17 15 14 24 10 26 -8 5z"/>
<path d="M8522 7230 c0 -14 2 -19 5 -12 2 6 2 18 0 25 -3 6 -5 1 -5 -13z"/>
<path d="M7991 7217 c-13 -21 -12 -21 5 -5 10 10 16 20 13 22 -3 3 -11 -5 -18
-17z"/>
<path d="M2173 7211 c-12 -11 -24 -18 -27 -15 -3 2 -4 1 -1 -3 3 -3 -3 -16
-12 -27 -15 -18 -14 -18 8 2 14 12 28 19 32 16 3 -3 16 1 29 10 12 9 17 16 11
16 -7 0 -15 -4 -18 -10 -3 -5 -11 -10 -17 -10 -6 0 -3 9 7 20 23 26 15 26 -12
1z"/>
<path d="M3715 7220 c-4 -6 -10 -8 -14 -6 -4 3 -5 -9 -3 -25 5 -35 5 -35 20 9
11 31 9 42 -3 22z"/>
<path d="M6470 7184 c6 -14 10 -42 11 -62 0 -20 4 -46 9 -57 7 -14 8 -1 6 41
-2 34 -9 71 -15 83 -16 29 -23 26 -11 -5z"/>
<path d="M3637 7059 c-27 -78 -46 -143 -44 -145 2 -2 10 15 17 38 11 37 14 40
21 23 4 -11 8 -15 8 -8 1 6 4 20 7 30 5 15 4 16 -6 3 -9 -13 -11 -12 -7 5 2
11 9 19 16 17 10 -2 12 4 8 20 -7 26 12 100 24 93 4 -3 11 0 15 6 5 8 3 9 -6
4 -9 -6 -11 0 -5 24 13 61 -1 29 -48 -110z"/>
<path d="M8502 7148 c-7 -28 -10 -53 -8 -56 3 -2 8 13 12 33 5 27 9 33 16 23
5 -8 6 -2 2 17 -4 17 -8 31 -9 32 -1 2 -7 -20 -13 -49z"/>
<path d="M2895 7150 c-9 -16 -13 -30 -11 -30 3 0 12 14 21 30 9 17 13 30 11
30 -3 0 -12 -13 -21 -30z"/>
<path d="M2073 7142 c1 -12 6 -18 15 -15 7 3 10 9 5 12 -4 3 -11 10 -15 15 -4
4 -6 -1 -5 -12z"/>
<path d="M7915 7108 c-16 -24 -22 -38 -14 -31 15 12 53 73 46 73 -2 0 -17 -19
-32 -42z"/>
<path d="M2010 7120 c-8 -5 -16 -18 -16 -29 -1 -22 11 -18 51 14 20 16 20 16
-4 9 -16 -4 -21 -3 -17 5 9 13 6 14 -14 1z"/>
<path d="M2861 7083 c-10 -26 -10 -27 4 -9 8 11 15 23 15 28 0 15 -7 8 -19
-19z"/>
<path d="M1965 7089 c-4 -6 -4 -13 -1 -16 3 -3 -2 -12 -12 -20 -16 -13 -16
-14 2 -5 11 5 20 19 21 31 2 23 -1 26 -10 10z"/>
<path d="M6472 7040 c0 -14 2 -19 5 -12 2 6 2 18 0 25 -3 6 -5 1 -5 -13z"/>
<path d="M1873 7029 c-35 -22 -45 -36 -15 -21 9 5 23 8 30 6 7 -1 8 0 2 3 -7
3 -4 10 7 19 28 21 12 16 -24 -7z"/>
<path d="M5430 6995 c6 -15 10 -40 10 -58 0 -24 3 -28 12 -19 9 9 8 21 -2 52
-7 23 -17 43 -22 46 -4 3 -3 -7 2 -21z"/>
<path d="M6461 6994 c0 -11 3 -14 6 -6 3 7 2 16 -1 19 -3 4 -6 -2 -5 -13z"/>
<path d="M2806 6975 c-9 -26 -7 -32 5 -12 6 10 9 21 6 23 -2 3 -7 -2 -11 -11z"/>
<path d="M1810 6950 c-43 -36 -62 -39 -29 -4 19 22 14 20 -27 -10 -61 -43 -88
-71 -58 -59 17 6 17 5 5 -10 -9 -12 -17 -14 -26 -7 -14 12 -73 -46 -80 -79
l-4 -22 25 20 c67 53 103 91 98 105 -3 8 3 19 15 25 31 17 36 13 15 -11 -10
-12 9 0 44 27 55 43 68 55 59 55 -1 0 -18 -13 -37 -30z m-141 -116 c-7 -8 -25
-24 -41 -35 -22 -16 -27 -17 -22 -5 3 9 13 16 22 16 8 0 12 3 9 7 -10 9 23 44
35 37 5 -3 4 -12 -3 -20z"/>
<path d="M7454 6961 c8 -12 -19 -33 -29 -23 -5 4 -5 1 -1 -6 6 -11 12 -10 27
4 16 14 18 34 3 34 -3 0 -3 -4 0 -9z"/>
<path d="M7825 6961 c-3 -5 -2 -12 3 -15 5 -3 9 1 9 9 0 17 -3 19 -12 6z"/>
<path d="M8436 6935 c-9 -26 -7 -32 5 -12 6 10 9 21 6 23 -2 3 -7 -2 -11 -11z"/>
<path d="M2742 6830 c-54 -114 -69 -160 -26 -77 16 30 29 45 37 41 9 -5 9 -4
0 6 -9 10 -5 26 18 72 17 33 28 62 26 64 -2 2 -27 -45 -55 -106z"/>
<path d="M5038 6859 c-29 -34 -52 -63 -50 -66 2 -3 -4 -10 -13 -17 -15 -11
-15 -13 -2 -25 12 -9 17 -9 23 0 4 7 3 9 -4 5 -6 -3 -13 -2 -16 3 -6 8 21 26
36 23 3 -1 12 5 18 13 8 9 8 15 2 15 -6 0 -12 -5 -14 -12 -3 -7 -7 -8 -10 -2
-4 5 16 35 44 67 27 31 47 57 45 57 -3 0 -30 -28 -59 -61z"/>
<path d="M6421 6893 c-10 -26 -10 -27 4 -9 8 11 15 23 15 28 0 15 -7 8 -19
-19z"/>
<path d="M8446 6905 c-9 -26 -7 -32 5 -12 6 10 9 21 6 23 -2 3 -7 -2 -11 -11z"/>
<path d="M7815 6889 c-4 -6 -5 -12 -2 -15 2 -3 7 2 10 11 7 17 1 20 -8 4z"/>
<path d="M8407 6858 c-9 -23 -15 -43 -13 -45 2 -2 11 15 20 38 9 23 15 43 13
45 -2 2 -11 -15 -20 -38z"/>
<path d="M7359 6873 c-13 -16 -12 -17 4 -4 9 7 17 15 17 17 0 8 -8 3 -21 -13z"/>
<path d="M2780 6859 c-7 -11 -10 -23 -7 -25 2 -2 9 7 15 21 14 30 7 33 -8 4z"/>
<path d="M5452 6855 c0 -16 2 -22 5 -12 2 9 2 23 0 30 -3 6 -5 -1 -5 -18z"/>
<path d="M7301 6861 c-19 -14 -21 -20 -10 -26 8 -5 11 -5 7 0 -4 4 3 16 15 26
29 24 19 24 -12 0z"/>
<path d="M7772 6860 c-17 -27 -15 -35 4 -16 8 9 14 21 12 26 -2 6 -9 1 -16
-10z"/>
<path d="M4528 6858 c8 -8 7 -15 -6 -25 -15 -13 -15 -13 5 -3 32 15 36 27 11
33 -15 4 -18 3 -10 -5z"/>
<path d="M5059 6843 l-24 -28 28 24 c25 23 32 31 24 31 -2 0 -14 -12 -28 -27z"/>
<path d="M4443 6803 c-33 -32 -39 -40 -14 -17 25 22 55 45 66 51 11 7 17 14
14 17 -3 4 -33 -20 -66 -51z"/>
<path d="M6391 6837 c-13 -20 -13 -21 2 -8 14 11 17 11 17 1 0 -8 3 -11 6 -7
3 3 2 12 -3 21 -7 13 -11 12 -22 -7z"/>
<path d="M7779 6823 c-13 -16 -12 -17 4 -4 16 13 21 21 13 21 -2 0 -10 -8 -17
-17z"/>
<path d="M4445 6768 l-50 -53 53 50 c48 46 57 55 49 55 -1 0 -25 -24 -52 -52z"/>
<path d="M5443 6785 c0 -22 2 -30 4 -17 2 12 2 30 0 40 -3 9 -5 -1 -4 -23z"/>
<path d="M6756 6794 c-4 -9 -4 -19 -1 -22 3 -3 5 0 5 7 0 7 4 9 10 6 6 -3 7 1
4 9 -8 20 -10 20 -18 0z"/>
<path d="M7193 6794 c-7 -3 -9 -12 -6 -20 4 -10 0 -13 -13 -8 -15 5 -16 4 -5
-4 11 -8 25 -4 52 11 21 12 36 23 34 26 -3 2 -16 -4 -31 -14 -24 -15 -26 -16
-21 -1 4 9 5 16 4 15 -1 0 -7 -3 -14 -5z"/>
<path d="M7736 6784 c-4 -9 -4 -19 -1 -22 2 -3 7 3 11 12 4 9 4 19 1 22 -2 3
-7 -3 -11 -12z"/>
<path d="M8372 6773 c-5 -15 -13 -35 -17 -44 -4 -10 0 -19 9 -22 10 -4 14 0
11 14 -2 11 0 32 6 46 5 14 8 28 5 30 -2 2 -8 -9 -14 -24z"/>
<path d="M1568 6775 c-4 -4 -4 -14 -1 -23 5 -11 3 -13 -7 -7 -8 5 -11 4 -7 -2
4 -6 0 -16 -8 -23 -12 -10 -15 -10 -15 1 0 12 -2 12 -9 0 -5 -8 -7 -20 -4 -27
7 -18 66 51 61 72 -2 9 -6 13 -10 9z"/>
<path d="M4121 6738 c5 -18 9 -57 9 -87 0 -59 9 -63 17 -8 5 37 -12 112 -27
122 -5 3 -5 -8 1 -27z"/>
<path d="M6359 6743 c-13 -16 -12 -17 4 -4 9 7 17 15 17 17 0 8 -8 3 -21 -13z"/>
<path d="M4945 6740 c-4 -6 -1 -9 7 -8 7 2 12 -3 10 -10 -1 -8 2 -11 8 -7 8 5
7 11 -1 21 -14 17 -16 17 -24 4z"/>
<path d="M7711 6719 c-6 -18 -9 -34 -7 -36 2 -2 9 10 15 28 6 18 9 34 7 36 -2
2 -9 -10 -15 -28z"/>
<path d="M5426 6694 c-3 -26 -4 -49 -2 -52 3 -2 8 17 11 43 4 25 5 48 3 51 -3
2 -8 -17 -12 -42z"/>
<path d="M4349 6703 c-13 -16 -12 -17 4 -4 16 13 21 21 13 21 -2 0 -10 -8 -17
-17z"/>
<path d="M7166 6707 c3 -10 9 -15 12 -12 3 3 0 11 -7 18 -10 9 -11 8 -5 -6z"/>
<path d="M4914 6698 c-4 -7 -14 -24 -22 -38 -14 -24 -13 -24 3 -5 20 24 37 55
31 55 -3 0 -8 -6 -12 -12z"/>
<path d="M1480 6685 c-7 -9 -11 -17 -9 -20 3 -2 10 5 17 15 14 24 10 26 -8 5z"/>
<path d="M2671 6674 c-6 -15 -9 -29 -6 -32 3 -3 5 1 6 9 0 8 4 6 8 -5 7 -19 8
-19 13 2 4 14 2 20 -4 16 -6 -4 -8 1 -3 15 9 29 1 26 -14 -5z"/>
<path d="M4369 6683 c-13 -16 -12 -17 4 -4 9 7 17 15 17 17 0 8 -8 3 -21 -13z"/>
<path d="M6280 6685 c-7 -8 -9 -22 -6 -31 5 -13 9 -14 21 -4 11 9 12 16 5 25
-5 6 -7 15 -3 18 3 4 4 7 1 7 -3 0 -11 -7 -18 -15z m15 -14 c3 -5 2 -12 -3
-15 -5 -3 -9 1 -9 9 0 17 3 19 12 6z"/>
<path d="M3511 6674 c0 -11 3 -14 6 -6 3 7 2 16 -1 19 -3 4 -6 -2 -5 -13z"/>
<path d="M7181 6680 c-1 -3 9 -30 21 -60 17 -44 22 -77 22 -165 1 -60 3 -96 5
-80 3 26 4 28 11 10 13 -30 12 81 0 145 -8 44 -56 166 -59 150z"/>
<path d="M1489 6653 c-13 -16 -12 -17 4 -4 9 7 17 15 17 17 0 8 -8 3 -21 -13z"/>
<path d="M8316 6630 c-22 -56 -19 -65 5 -11 11 24 18 46 15 48 -2 2 -11 -14
-20 -37z"/>
<path d="M4910 6640 c-6 -11 -8 -20 -6 -20 3 0 10 9 16 20 6 11 8 20 6 20 -3
0 -10 -9 -16 -20z"/>
<path d="M6668 6606 c-21 -42 -24 -55 -14 -59 10 -4 12 1 9 14 -4 15 -2 18 13
13 13 -4 15 -3 6 3 -18 13 -4 43 16 36 13 -3 14 -2 4 4 -7 5 -10 17 -6 26 14
37 -3 14 -28 -37z"/>
<path d="M3486 6594 c-10 -31 -16 -58 -14 -60 3 -2 12 21 22 52 10 31 16 58
14 60 -3 2 -12 -21 -22 -52z"/>
<path d="M1419 6613 l-24 -28 28 24 c25 23 32 31 24 31 -2 0 -14 -12 -28 -27z"/>
<path d="M4294 6628 c-4 -7 -14 -24 -22 -38 -14 -24 -13 -24 3 -5 20 24 37 55
31 55 -3 0 -8 -6 -12 -12z"/>
<path d="M7681 6624 c0 -11 3 -14 6 -6 3 7 2 16 -1 19 -3 4 -6 -2 -5 -13z"/>
<path d="M1449 6603 l-24 -28 28 24 c25 23 32 31 24 31 -2 0 -14 -12 -28 -27z"/>
<path d="M2646 6614 c-4 -9 -4 -19 -1 -22 2 -3 8 3 11 12 5 14 9 15 16 4 8
-10 9 -10 6 1 -6 22 -25 24 -32 5z"/>
<path d="M5411 6614 c0 -11 3 -14 6 -6 3 7 2 16 -1 19 -3 4 -6 -2 -5 -13z"/>
<path d="M6225 6611 c-3 -5 -2 -12 3 -15 5 -3 9 1 9 9 0 17 -3 19 -12 6z"/>
<path d="M4870 6570 c-6 -11 -8 -20 -6 -20 3 0 10 9 16 20 6 11 8 20 6 20 -3
0 -10 -9 -16 -20z"/>
<path d="M5401 6574 c0 -11 3 -14 6 -6 3 7 2 16 -1 19 -3 4 -6 -2 -5 -13z"/>
<path d="M2616 6539 c-16 -40 -14 -65 5 -53 8 5 39 69 39 81 0 3 -7 0 -15 -7
-13 -11 -14 -10 -9 4 3 9 4 16 1 16 -3 0 -12 -18 -21 -41z m17 -19 c-3 -11
-10 -23 -16 -27 -7 -4 -8 0 -4 11 4 10 7 22 7 27 0 5 4 9 9 9 5 0 7 -9 4 -20z"/>
<path d="M7661 6563 c-1 -6 -4 -20 -7 -30 -5 -17 -5 -17 6 0 6 10 9 23 6 30
-3 9 -5 9 -5 0z"/>
<path d="M6132 6535 c-11 -14 -25 -25 -30 -25 -6 0 -13 -4 -16 -9 -4 -5 4 -7
16 -3 16 4 19 2 14 -9 -4 -8 1 -4 12 8 11 12 22 20 24 18 3 -3 15 7 29 22 l24
26 -25 -16 c-30 -21 -47 -22 -30 -2 7 8 10 15 7 15 -3 0 -14 -11 -25 -25z"/>
<path d="M8267 6498 c-9 -29 -15 -54 -13 -56 2 -2 12 20 21 48 9 28 15 53 13
55 -2 3 -12 -19 -21 -47z"/>
<path d="M9231 6524 c0 -11 3 -14 6 -6 3 7 2 16 -1 19 -3 4 -6 -2 -5 -13z"/>
<path d="M8291 6499 c-6 -18 -9 -34 -7 -36 2 -2 9 10 15 28 6 18 9 34 7 36 -2
2 -9 -10 -15 -28z"/>
<path d="M1340 6504 c-8 -8 -9 -14 -4 -13 21 4 26 -2 13 -18 -13 -16 -12 -17
4 -4 12 9 14 17 7 26 -5 6 -7 15 -3 18 3 4 4 7 1 7 -3 0 -11 -7 -18 -16z"/>
<path d="M1370 6509 c0 -5 5 -7 10 -4 6 3 10 8 10 11 0 2 -4 4 -10 4 -5 0 -10
-5 -10 -11z"/>
<path d="M3461 6504 c0 -11 3 -14 6 -6 3 7 2 16 -1 19 -3 4 -6 -2 -5 -13z"/>
<path d="M4216 6496 c-10 -16 -12 -27 -6 -31 6 -4 9 -3 8 2 -1 4 3 18 10 31
17 30 8 28 -12 -2z"/>
<path d="M5381 6494 c0 -11 3 -14 6 -6 3 7 2 16 -1 19 -3 4 -6 -2 -5 -13z"/>
<path d="M9245 6465 c3 -22 5 -83 6 -135 l2 -95 7 75 c7 79 5 121 -11 167 -8
24 -8 22 -4 -12z"/>
<path d="M1816 6438 c14 -28 37 -94 50 -146 25 -97 34 -121 34 -86 0 55 -84
284 -105 284 -3 0 6 -23 21 -52z"/>
<path d="M6051 6477 c-6 -8 -8 -17 -4 -21 4 -3 -2 -13 -13 -22 -18 -14 -18
-15 4 -4 13 6 21 17 19 25 -3 7 0 18 6 24 6 6 8 11 5 11 -3 0 -11 -6 -17 -13z"/>
<path d="M3451 6464 c0 -11 3 -14 6 -6 3 7 2 16 -1 19 -3 4 -6 -2 -5 -13z"/>
<path d="M6080 6470 c-9 -6 -10 -10 -3 -10 6 0 15 5 18 10 8 12 4 12 -15 0z"/>
<path d="M5366 6455 c-9 -26 -7 -32 5 -12 6 10 9 21 6 23 -2 3 -7 -2 -11 -11z"/>
<path d="M7646 6455 c-9 -26 -7 -32 5 -12 6 10 9 21 6 23 -2 3 -7 -2 -11 -11z"/>
<path d="M4186 6443 c-6 -14 -5 -15 5 -6 7 7 10 15 7 18 -3 3 -9 -2 -12 -12z"/>
<path d="M6004 6444 c-18 -14 -18 -15 4 -4 12 6 22 13 22 15 0 8 -5 6 -26 -11z"/>
<path d="M3441 6424 c0 -11 3 -14 6 -6 3 7 2 16 -1 19 -3 4 -6 -2 -5 -13z"/>
<path d="M2556 6390 c-22 -56 -19 -65 5 -11 11 24 18 46 15 48 -2 2 -11 -14
-20 -37z"/>
<path d="M4166 6403 c-6 -14 -5 -15 5 -6 7 7 10 15 7 18 -3 3 -9 -2 -12 -12z"/>
<path d="M5986 6408 c3 -5 10 -6 15 -3 13 9 11 12 -6 12 -8 0 -12 -4 -9 -9z"/>
<path d="M8226 6374 c-4 -14 -5 -28 -3 -31 3 -2 8 8 11 23 4 14 5 28 3 31 -3
2 -8 -8 -11 -23z"/>
<path d="M4746 6375 c-9 -26 -7 -32 5 -12 6 10 9 21 6 23 -2 3 -7 -2 -11 -11z"/>
<path d="M1229 6319 c-24 -48 -28 -64 -18 -73 9 -8 10 -8 5 2 -10 17 4 38 14
22 5 -8 9 -7 13 5 4 9 3 13 -3 10 -6 -3 -10 1 -10 10 0 12 5 15 18 10 13 -5
14 -4 5 6 -9 9 -9 18 3 40 8 16 12 29 9 29 -2 0 -19 -28 -36 -61z"/>
<path d="M5853 6370 c-13 -5 -23 -12 -23 -14 0 -3 7 -2 17 1 11 4 14 3 9 -5
-11 -19 -2 -14 17 8 18 22 14 24 -20 10z"/>
<path d="M3421 6354 c0 -11 3 -14 6 -6 3 7 2 16 -1 19 -3 4 -6 -2 -5 -13z"/>
<path d="M4114 6292 c-16 -37 -18 -50 -9 -59 10 -9 15 -5 24 13 14 31 14 37 0
28 -10 -6 -8 10 8 54 3 6 3 12 1 12 -2 0 -13 -22 -24 -48z m3 -44 c-3 -8 -6
-5 -6 6 -1 11 2 17 5 13 3 -3 4 -12 1 -19z"/>
<path d="M3411 6314 c0 -11 3 -14 6 -6 3 7 2 16 -1 19 -3 4 -6 -2 -5 -13z"/>
<path d="M4721 6313 c-1 -6 -4 -20 -7 -30 -5 -17 -5 -17 6 0 6 10 9 23 6 30
-3 9 -5 9 -5 0z"/>
<path d="M7177 6256 c-24 -51 -25 -55 -9 -67 14 -11 15 -11 5 0 -9 11 -7 24
13 63 14 28 24 52 22 54 -2 2 -16 -21 -31 -50z"/>
<path d="M7577 6285 c-4 -17 -13 -52 -22 -80 -8 -27 -12 -45 -7 -40 14 17 45
122 40 136 -3 8 -7 0 -11 -16z"/>
<path d="M2516 6284 c-4 -9 -2 -22 3 -28 6 -7 6 -17 1 -26 -6 -8 -10 -19 -9
-25 0 -5 6 1 14 15 8 16 10 29 4 36 -5 6 -7 19 -3 28 3 9 4 16 1 16 -3 0 -8
-7 -11 -16z"/>
<path d="M4736 6285 c-9 -26 -7 -32 5 -12 6 10 9 21 6 23 -2 3 -7 -2 -11 -11z"/>
<path d="M5822 6280 c0 -14 2 -19 5 -12 2 6 2 18 0 25 -3 6 -5 1 -5 -13z"/>
<path d="M8195 6270 c-4 -17 -5 -34 -2 -36 2 -3 7 10 11 27 3 18 4 34 2 36 -2
3 -7 -10 -11 -27z"/>
<path d="M3391 6233 c0 -11 3 -13 6 -5 2 6 10 9 15 6 7 -4 8 -2 4 4 -11 18
-26 14 -25 -5z"/>
<path d="M1170 6184 c-11 -31 -19 -59 -16 -61 2 -2 11 15 19 39 9 25 16 35 16
23 1 -17 3 -17 11 -5 13 20 13 33 -1 24 -8 -4 -9 0 -4 15 14 45 -5 18 -25 -35z"/>
<path d="M4080 6215 c-7 -9 -11 -17 -9 -20 3 -2 10 5 17 15 14 24 10 26 -8 5z"/>
<path d="M4681 6199 c-6 -18 -9 -34 -7 -36 2 -2 9 10 15 28 6 18 9 34 7 36 -2
2 -9 -10 -15 -28z"/>
<path d="M2486 6205 c-9 -26 -7 -32 5 -12 6 10 9 21 6 23 -2 3 -7 -2 -11 -11z"/>
<path d="M9242 6200 c0 -14 2 -19 5 -12 2 6 2 18 0 25 -3 6 -5 1 -5 -13z"/>
<path d="M5812 6185 c0 -16 2 -22 5 -12 2 9 2 23 0 30 -3 6 -5 -1 -5 -18z"/>
<path d="M7129 6173 c-13 -16 -12 -17 4 -4 9 7 17 15 17 17 0 8 -8 3 -21 -13z"/>
<path d="M4060 6179 c0 -2 -9 -28 -20 -56 -11 -29 -16 -53 -12 -53 9 0 43 103
36 109 -2 2 -4 2 -4 0z"/>
<path d="M1894 6075 c0 -55 1 -76 3 -47 2 29 2 74 0 100 -2 26 -3 2 -3 -53z"/>
<path d="M2471 6163 c-1 -6 -4 -20 -7 -30 -5 -17 -5 -17 6 0 6 10 9 23 6 30
-3 9 -5 9 -5 0z"/>
<path d="M7150 6155 c-7 -8 -16 -13 -20 -10 -5 3 -12 0 -16 -6 -4 -8 -3 -9 4
-5 7 4 12 3 12 -1 0 -10 -42 -48 -50 -46 -3 1 -14 -11 -25 -25 -16 -23 -13
-22 25 9 40 33 99 99 88 99 -3 0 -11 -7 -18 -15z"/>
<path d="M9231 6154 c0 -11 3 -14 6 -6 3 7 2 16 -1 19 -3 4 -6 -2 -5 -13z"/>
<path d="M4075 6149 c-4 -6 -5 -12 -2 -15 2 -3 7 2 10 11 7 17 1 20 -8 4z"/>
<path d="M4661 6143 c-1 -6 -4 -20 -7 -30 -5 -17 -5 -17 6 0 6 10 9 23 6 30
-3 9 -5 9 -5 0z"/>
<path d="M5255 6139 c-4 -6 -5 -12 -2 -15 2 -3 7 2 10 11 7 17 1 20 -8 4z"/>
<path d="M7536 6133 c-6 -14 -5 -15 5 -6 7 7 10 15 7 18 -3 3 -9 -2 -12 -12z"/>
<path d="M8161 6124 c0 -11 3 -14 6 -6 3 7 2 16 -1 19 -3 4 -6 -2 -5 -13z"/>
<path d="M7079 6113 c-13 -16 -12 -17 4 -4 9 7 17 15 17 17 0 8 -8 3 -21 -13z"/>
<path d="M9221 6114 c0 -11 3 -14 6 -6 3 7 2 16 -1 19 -3 4 -6 -2 -5 -13z"/>
<path d="M1141 6094 c0 -11 3 -14 6 -6 3 7 2 16 -1 19 -3 4 -6 -2 -5 -13z"/>
<path d="M2446 6095 c-9 -26 -7 -32 5 -12 6 10 9 21 6 23 -2 3 -7 -2 -11 -11z"/>
<path d="M7346 6100 c-11 -3 10 -7 47 -8 36 -1 68 1 70 6 6 9 -92 11 -117 2z"/>
<path d="M3351 6074 c0 -11 3 -14 6 -6 3 7 2 16 -1 19 -3 4 -6 -2 -5 -13z"/>
<path d="M8152 6060 c0 -14 2 -19 5 -12 2 6 2 18 0 25 -3 6 -5 1 -5 -13z"/>
<path d="M5527 6035 c-9 -19 -15 -35 -12 -35 7 0 37 61 33 66 -3 2 -12 -12
-21 -31z"/>
<path d="M7009 6053 c-13 -15 -12 -15 9 -4 23 12 28 21 13 21 -5 0 -15 -7 -22
-17z"/>
<path d="M1121 6024 c0 -11 3 -14 6 -6 3 7 2 16 -1 19 -3 4 -6 -2 -5 -13z"/>
<path d="M5555 6029 c-4 -6 -5 -12 -2 -15 2 -3 7 2 10 11 7 17 1 20 -8 4z"/>
<path d="M6970 6030 c-9 -6 -10 -10 -3 -10 6 0 15 5 18 10 8 12 4 12 -15 0z"/>
<path d="M5221 6014 c0 -11 3 -14 6 -6 3 7 2 16 -1 19 -3 4 -6 -2 -5 -13z"/>
<path d="M2416 6005 c-9 -26 -7 -32 5 -12 6 10 9 21 6 23 -2 3 -7 -2 -11 -11z"/>
<path d="M6266 6005 c-3 -8 -13 -15 -21 -15 -10 0 -13 5 -9 12 4 7 3 8 -5 4
-14 -9 -5 -26 13 -26 7 0 21 9 31 20 10 11 13 20 8 20 -6 0 -13 -7 -17 -15z"/>
<path d="M8142 5995 c0 -16 2 -22 5 -12 2 9 2 23 0 30 -3 6 -5 -1 -5 -18z"/>
<path d="M3331 5994 c0 -11 3 -14 6 -6 3 7 2 16 -1 19 -3 4 -6 -2 -5 -13z"/>
<path d="M1105 5950 c-4 -28 -5 -53 -2 -56 2 -3 7 19 11 47 4 28 5 53 3 56 -3
2 -8 -19 -12 -47z"/>
<path d="M3981 5969 c-6 -18 -9 -34 -7 -36 2 -2 9 10 15 28 6 18 9 34 7 36 -2
2 -9 -10 -15 -28z"/>
<path d="M5490 5968 c-12 -22 -12 -22 6 -6 10 10 15 20 12 24 -4 3 -12 -5 -18
-18z"/>
<path d="M6196 5982 c-3 -5 1 -9 9 -9 8 0 12 4 9 9 -3 4 -7 8 -9 8 -2 0 -6 -4
-9 -8z"/>
<path d="M3322 5950 c0 -14 2 -19 5 -12 2 6 2 18 0 25 -3 6 -5 1 -5 -13z"/>
<path d="M5497 5928 c-14 -24 -42 -61 -61 -82 -32 -35 -41 -39 -37 -13 1 5 -3
6 -9 2 -8 -5 -7 -11 1 -21 13 -16 -2 -19 -18 -3 -8 8 -13 8 -18 0 -3 -6 -3
-11 2 -10 20 4 24 -2 12 -18 -12 -14 -10 -14 14 2 32 21 110 113 133 157 22
43 9 33 -19 -14z"/>
<path d="M1881 5944 c0 -11 3 -14 6 -6 3 7 2 16 -1 19 -3 4 -6 -2 -5 -13z"/>
<path d="M6718 5953 c12 -2 32 -2 45 0 12 2 2 4 -23 4 -25 0 -35 -2 -22 -4z"/>
<path d="M9150 5933 c-8 -15 -23 -40 -33 -55 -10 -16 -15 -34 -11 -40 4 -7 4
-10 -1 -6 -15 14 -35 -13 -30 -41 4 -19 3 -21 -3 -7 -7 17 -10 16 -27 -10 -10
-16 -50 -60 -89 -98 -38 -37 -71 -75 -72 -83 -2 -8 -6 -18 -10 -21 -4 -4 -4 1
-1 11 4 9 4 17 1 17 -11 0 -94 -61 -94 -69 0 -5 -6 -8 -12 -8 -7 1 -44 -13
-82 -31 -37 -18 -79 -35 -92 -38 -13 -3 -24 -9 -24 -13 0 -3 -10 -7 -22 -8
-13 -1 -72 -6 -133 -10 -106 -8 -108 -9 -57 -17 59 -9 192 1 192 15 0 4 6 6
14 3 19 -7 169 51 239 93 58 35 71 47 40 37 -17 -5 -17 -5 0 6 9 6 21 9 25 6
13 -8 113 84 106 96 -4 6 -2 8 4 4 15 -9 123 115 116 134 -3 8 -2 11 2 7 7 -7
74 81 74 98 0 5 -5 3 -10 -5 -8 -12 -10 -11 -10 7 0 12 5 23 12 25 6 2 9 10 7
17 -3 8 -10 1 -19 -16z m-14 -69 c-21 -20 -28 -17 -14 5 7 11 16 17 20 15 5
-3 2 -12 -6 -20z m-66 -98 c0 -2 -7 -9 -15 -16 -13 -11 -14 -10 -9 4 5 14 24
23 24 12z m-132 -141 c-19 -22 -46 -26 -32 -4 3 5 9 7 14 4 4 -3 10 2 14 10 3
8 10 15 16 15 5 0 0 -11 -12 -25z m-168 -114 c0 -5 -7 -12 -16 -15 -14 -5 -15
-4 -4 9 14 17 20 19 20 6z m-70 -35 c0 -2 -9 -6 -20 -9 -11 -3 -18 -1 -14 4 5
9 34 13 34 5z"/>
<path d="M5455 5921 c-3 -5 -2 -12 3 -15 5 -3 9 1 9 9 0 17 -3 19 -12 6z"/>
<path d="M3312 5900 c0 -14 2 -19 5 -12 2 6 2 18 0 25 -3 6 -5 1 -5 -13z"/>
<path d="M1891 5884 c0 -11 3 -14 6 -6 3 7 2 16 -1 19 -3 4 -6 -2 -5 -13z"/>
<path d="M4572 5863 c-15 -48 -8 -55 8 -8 7 20 10 38 8 41 -3 2 -10 -13 -16
-33z"/>
<path d="M5430 5885 c-7 -9 -11 -17 -9 -20 3 -2 10 5 17 15 14 24 10 26 -8 5z"/>
<path d="M6085 5890 c-3 -6 1 -7 9 -4 18 7 21 14 7 14 -6 0 -13 -4 -16 -10z"/>
<path d="M6015 5880 c27 -12 43 -12 25 0 -8 5 -22 9 -30 9 -10 0 -8 -3 5 -9z"/>
<path d="M5955 5870 c11 -5 29 -8 40 -8 16 0 15 2 -5 8 -34 11 -60 11 -35 0z"/>
<path d="M2980 5866 c0 -2 8 -10 18 -17 15 -13 16 -12 3 4 -13 16 -21 21 -21
13z"/>
<path d="M3301 5854 c0 -11 3 -14 6 -6 3 7 2 16 -1 19 -3 4 -6 -2 -5 -13z"/>
<path d="M5898 5863 c6 -2 18 -2 25 0 6 3 1 5 -13 5 -14 0 -19 -2 -12 -5z"/>
<path d="M2352 5800 c-5 -22 -6 -42 -2 -45 7 -4 22 76 16 83 -2 1 -8 -15 -14
-38z"/>
<path d="M1107 5807 c-4 -10 -7 -27 -7 -37 0 -24 40 -153 46 -148 2 3 -1 19
-7 36 -6 17 -14 61 -17 99 -5 44 -10 62 -15 50z"/>
<path d="M3291 5804 c0 -11 3 -14 6 -6 3 7 2 16 -1 19 -3 4 -6 -2 -5 -13z"/>
<path d="M8144 5754 c3 -25 15 -64 26 -87 11 -23 18 -34 15 -23 -3 10 -12 49
-21 87 -18 78 -30 92 -20 23z"/>
<path d="M3281 5764 c0 -11 3 -14 6 -6 3 7 2 16 -1 19 -3 4 -6 -2 -5 -13z"/>
<path d="M3886 5684 c-16 -47 -26 -87 -23 -90 2 -2 12 24 22 58 14 50 19 59
26 43 4 -11 8 -15 8 -8 1 6 4 20 7 30 5 15 4 16 -6 3 -9 -12 -10 -8 -5 18 11
56 -1 35 -29 -54z"/>
<path d="M4536 5744 c-4 -14 -5 -28 -3 -31 3 -2 8 8 11 23 4 14 5 28 3 31 -3
2 -8 -8 -11 -23z"/>
<path d="M1815 5749 c-4 -6 -5 -12 -2 -15 2 -3 7 2 10 11 7 17 1 20 -8 4z"/>
<path d="M2351 5714 c0 -11 3 -14 6 -6 3 7 2 16 -1 19 -3 4 -6 -2 -5 -13z"/>
<path d="M3272 5705 c0 -16 2 -22 5 -12 2 9 2 23 0 30 -3 6 -5 -1 -5 -18z"/>
<path d="M7355 5700 c8 -16 15 -38 15 -50 0 -11 5 -20 11 -20 6 0 8 9 3 23 -9
30 -33 77 -40 77 -2 0 2 -13 11 -30z"/>
<path d="M1785 5694 c-9 -15 -12 -23 -6 -20 11 7 35 46 28 46 -3 0 -12 -12
-22 -26z"/>
<path d="M5181 5704 c0 -11 3 -14 6 -6 3 7 2 16 -1 19 -3 4 -6 -2 -5 -13z"/>
<path d="M2321 5684 c0 -11 3 -14 6 -6 3 7 2 16 -1 19 -3 4 -6 -2 -5 -13z"/>
<path d="M4521 5684 c0 -11 3 -14 6 -6 3 7 2 16 -1 19 -3 4 -6 -2 -5 -13z"/>
<path d="M3262 5650 c0 -14 2 -19 5 -12 2 6 2 18 0 25 -3 6 -5 1 -5 -13z"/>
<path d="M1779 5643 c-13 -16 -12 -17 4 -4 9 7 17 15 17 17 0 8 -8 3 -21 -13z"/>
<path d="M2302 5610 c-7 -29 -10 -55 -8 -58 3 -2 8 13 12 34 6 32 8 35 15 19
9 -25 10 0 0 34 -6 21 -8 17 -19 -29z"/>
<path d="M4507 5637 c-4 -15 -14 -27 -23 -27 -8 0 -12 -5 -8 -11 4 -8 -4 -9
-27 -5 l-34 5 33 -11 c20 -7 36 -8 40 -2 4 5 13 9 21 9 8 0 15 6 17 13 1 7 0
8 -3 2 -2 -5 -9 -10 -14 -10 -6 0 -5 9 1 21 6 11 10 25 7 32 -2 7 -7 0 -10
-16z"/>
<path d="M1744 5623 c2 -10 6 -17 10 -16 15 3 16 11 2 22 -12 10 -14 9 -12 -6z"/>
<path d="M8190 5611 c0 -6 4 -13 10 -16 6 -3 7 1 4 9 -7 18 -14 21 -14 7z"/>
<path d="M1150 5601 c0 -6 4 -13 10 -16 6 -3 7 1 4 9 -7 18 -14 21 -14 7z"/>
<path d="M3252 5580 c0 -19 2 -27 5 -17 2 9 2 25 0 35 -3 9 -5 1 -5 -18z"/>
<path d="M1660 5554 c-30 -25 -54 -49 -52 -55 1 -5 -3 -9 -10 -8 -21 4 -105
-42 -105 -57 0 -10 7 -12 21 -8 40 12 96 44 96 55 0 6 4 8 8 5 5 -3 21 6 38
20 16 14 24 23 17 20 -6 -4 -14 -2 -18 4 -3 6 4 10 17 10 17 0 19 3 9 9 -11 7
-9 10 8 16 11 3 21 12 21 18 0 7 4 6 10 -3 6 -9 10 -10 10 -3 0 25 -17 19 -70
-23z m-20 -49 c-7 -8 -17 -12 -22 -9 -5 3 -1 12 9 19 22 17 30 11 13 -10z
m-80 -47 c-23 -10 -45 -16 -47 -14 -3 2 12 10 31 17 20 7 36 17 36 22 0 4 5 5
12 1 7 -5 -4 -14 -32 -26z"/>
<path d="M4385 5580 c27 -12 43 -12 25 0 -8 5 -22 9 -30 9 -10 0 -8 -3 5 -9z"/>
<path d="M7393 5555 c0 -22 2 -30 4 -17 2 12 2 30 0 40 -3 9 -5 -1 -4 -23z"/>
<path d="M4309 5563 c-13 -16 -12 -17 3 -4 10 7 25 11 33 7 9 -3 13 -2 10 4
-10 15 -31 12 -46 -7z"/>
<path d="M7372 5545 c0 -16 2 -22 5 -12 2 9 2 23 0 30 -3 6 -5 -1 -5 -18z"/>
<path d="M2821 5533 c-10 -26 -10 -27 4 -9 8 11 15 23 15 28 0 15 -7 8 -19
-19z"/>
<path d="M2282 5520 c0 -14 2 -19 5 -12 2 6 2 18 0 25 -3 6 -5 1 -5 -13z"/>
<path d="M3241 5438 c0 -54 2 -98 7 -98 4 0 6 37 4 83 -4 120 -10 127 -11 15z"/>
<path d="M5206 5513 c-6 -14 -5 -15 5 -6 7 7 10 15 7 18 -3 3 -9 -2 -12 -12z"/>
<path d="M2781 5464 c-12 -19 -16 -32 -11 -29 11 7 43 65 36 65 -2 0 -13 -16
-25 -36z"/>
<path d="M7361 5484 c0 -11 3 -14 6 -6 3 7 2 16 -1 19 -3 4 -6 -2 -5 -13z"/>
<path d="M3830 5470 c-9 -6 -10 -10 -3 -10 6 0 15 5 18 10 8 12 4 12 -15 0z"/>
<path d="M3620 5435 c-9 -10 -9 -15 -1 -15 6 0 11 4 11 10 0 5 14 7 33 3 37
-7 34 1 -4 10 -18 5 -31 2 -39 -8z"/>
<path d="M1440 5429 c-14 -6 -54 -14 -90 -19 l-65 -7 78 -2 c49 -1 77 3 77 10
0 6 9 8 23 4 15 -4 18 -3 8 3 -11 8 -11 10 0 15 8 3 10 5 4 6 -5 0 -21 -5 -35
-10z"/>
<path d="M2282 5410 c0 -14 2 -19 5 -12 2 6 2 18 0 25 -3 6 -5 1 -5 -13z"/>
<path d="M7340 5410 c-6 -11 -8 -20 -6 -20 3 0 10 9 16 20 6 11 8 20 6 20 -3
0 -10 -9 -16 -20z"/>
<path d="M8278 5423 c7 -3 16 -2 19 1 4 3 -2 6 -13 5 -11 0 -14 -3 -6 -6z"/>
<path d="M2262 5400 c0 -14 2 -19 5 -12 2 6 2 18 0 25 -3 6 -5 1 -5 -13z"/>
<path d="M7819 5397 c-156 -82 -153 -300 4 -300 70 0 154 59 183 130 16 38 18
116 4 144 -28 51 -120 63 -191 26z"/>
<path d="M2712 5354 c-18 -25 -28 -42 -21 -39 6 4 15 2 19 -5 5 -9 9 -9 14 -1
4 6 2 11 -3 11 -6 0 -11 5 -11 11 0 6 7 9 15 6 8 -4 17 -2 20 4 4 5 3 9 -2 8
-20 -4 -22 3 -7 26 28 43 9 27 -24 -21z"/>
<path d="M5418 5393 c28 -2 76 -2 105 0 28 2 5 3 -53 3 -58 0 -81 -1 -52 -3z"/>
<path d="M5288 5383 c7 -3 16 -2 19 1 4 3 -2 6 -13 5 -11 0 -14 -3 -6 -6z"/>
<path d="M5608 5383 c7 -3 16 -2 19 1 4 3 -2 6 -13 5 -11 0 -14 -3 -6 -6z"/>
<path d="M5240 5371 c0 -6 4 -12 8 -15 5 -3 9 1 9 9 0 8 -4 15 -9 15 -4 0 -8
-4 -8 -9z"/>
<path d="M5723 5373 c9 -2 25 -2 35 0 9 3 1 5 -18 5 -19 0 -27 -2 -17 -5z"/>
<path d="M6230 5370 c0 -5 5 -10 11 -10 5 0 7 5 4 10 -3 6 -8 10 -11 10 -2 0
-4 -4 -4 -10z"/>
<path d="M7312 5355 c-30 -66 -138 -185 -247 -272 -47 -38 -44 -44 5 -8 48 35
61 31 20 -6 -54 -49 -2 -11 68 49 34 30 59 59 55 64 -3 6 -1 8 4 5 12 -7 70
59 101 114 12 22 17 43 13 58 l-6 24 -13 -28z m7 -37 c-7 -13 -21 -31 -32 -40
-11 -10 -16 -18 -11 -18 5 0 -2 -7 -14 -16 -12 -8 -22 -22 -22 -30 0 -8 -5
-12 -10 -9 -6 4 10 30 35 62 25 30 45 59 45 64 0 5 5 9 10 9 7 0 6 -8 -1 -22z
m-188 -211 c-10 -9 -11 -8 -5 6 3 10 9 15 12 12 3 -3 0 -11 -7 -18z"/>
<path d="M2268 5323 c5 -76 10 -83 11 -15 0 34 -2 62 -7 62 -4 0 -6 -21 -4
-47z"/>
<path d="M5798 5363 c6 -2 18 -2 25 0 6 3 1 5 -13 5 -14 0 -19 -2 -12 -5z"/>
<path d="M5868 5353 c7 -3 16 -2 19 1 4 3 -2 6 -13 5 -11 0 -14 -3 -6 -6z"/>
<path d="M5908 5343 c6 -2 18 -2 25 0 6 3 1 5 -13 5 -14 0 -19 -2 -12 -5z"/>
<path d="M2253 5285 c0 -33 2 -45 4 -27 2 18 2 45 0 60 -2 15 -4 0 -4 -33z"/>
<path d="M5265 5303 c23 -55 90 -154 126 -189 21 -19 14 -7 -18 34 -28 35 -64
92 -79 127 -31 68 -55 92 -29 28z"/>
<path d="M5958 5333 c6 -2 18 -2 25 0 6 3 1 5 -13 5 -14 0 -19 -2 -12 -5z"/>
<path d="M6008 5323 c7 -3 16 -2 19 1 4 3 -2 6 -13 5 -11 0 -14 -3 -6 -6z"/>
<path d="M6048 5313 c7 -3 16 -2 19 1 4 3 -2 6 -13 5 -11 0 -14 -3 -6 -6z"/>
<path d="M6095 5300 c27 -12 43 -12 25 0 -8 5 -22 9 -30 9 -10 0 -8 -3 5 -9z"/>
<path d="M8066 5270 c2 -24 6 -46 9 -48 9 -9 5 63 -4 77 -6 10 -8 0 -5 -29z"/>
<path d="M2685 5270 c-3 -5 -12 -7 -19 -4 -8 3 -17 1 -21 -5 -4 -7 1 -8 12 -4
16 6 16 5 4 -11 -8 -9 -20 -15 -27 -12 -7 3 -33 -17 -58 -44 -24 -26 -47 -46
-49 -44 -2 2 -12 -5 -22 -16 -10 -11 -15 -20 -10 -20 4 0 13 7 20 17 8 11 14
13 19 5 4 -7 2 -12 -3 -12 -6 0 -11 -5 -11 -11 0 -8 5 -8 15 1 8 7 12 16 9 21
-5 8 8 13 27 11 4 -1 15 9 25 21 l19 22 -22 -19 c-13 -11 -23 -15 -23 -11 0
16 52 75 61 69 5 -3 6 -11 3 -17 -5 -8 -4 -8 2 -2 57 62 67 75 61 75 -3 0 -8
-4 -12 -10z"/>
<path d="M4756 5241 c-4 -5 3 -7 14 -4 23 6 26 13 6 13 -8 0 -17 -4 -20 -9z"/>
<path d="M3428 5233 c7 -3 16 -2 19 1 4 3 -2 6 -13 5 -11 0 -14 -3 -6 -6z"/>
<path d="M4725 5230 c3 -5 8 -10 11 -10 2 0 4 5 4 10 0 6 -5 10 -11 10 -5 0
-7 -4 -4 -10z"/>
<path d="M3384 5221 c4 -7 0 -10 -11 -9 -32 2 -54 -2 -49 -10 2 -4 -3 -8 -12
-9 -9 -1 -39 -6 -67 -11 l-50 -10 55 0 c84 -2 187 41 139 57 -7 2 -9 -1 -5 -8z"/>
<path d="M4602 5180 c-51 -34 -114 -90 -74 -66 6 4 12 3 12 -3 0 -15 -18 -23
-25 -11 -10 16 -37 -10 -30 -28 3 -8 0 -22 -7 -31 -12 -14 -11 -15 5 -2 12 9
15 21 11 35 -5 17 -4 19 6 9 11 -10 26 -2 74 36 34 26 76 56 93 66 23 13 29
21 20 27 -18 12 -20 11 -85 -32z m73 20 c-3 -5 -12 -10 -18 -10 -7 0 -6 4 3
10 19 12 23 12 15 0z m-80 -50 c-21 -21 -42 -37 -47 -34 -11 7 0 24 16 24 7 0
23 11 36 25 13 14 26 25 29 25 3 0 -12 -18 -34 -40z"/>
<path d="M8015 5120 c-24 -25 -31 -28 -44 -17 -14 10 -14 10 -3 -4 10 -14 10
-18 -2 -22 -7 -3 -20 0 -27 6 -11 10 -11 9 0 -5 9 -12 18 -15 30 -9 18 10 88
81 80 81 -3 0 -18 -13 -34 -30z"/>
<path d="M2456 5094 c-11 -8 -17 -14 -14 -14 4 0 15 -3 25 -6 15 -5 16 -4 3 6
-13 10 -11 11 7 7 13 -3 26 0 30 6 3 7 3 9 -2 5 -4 -4 -13 -4 -19 1 -7 6 -18
4 -30 -5z"/>
<path d="M5430 5077 c0 -2 15 -16 33 -33 l32 -29 -29 33 c-28 30 -36 37 -36
29z"/>
<path d="M7897 5073 c-9 -2 -15 -9 -12 -14 9 -14 22 -11 29 6 3 8 4 14 3 14
-1 -1 -10 -3 -20 -6z"/>
<path d="M2393 5055 c0 -8 4 -12 9 -9 5 3 6 10 3 15 -9 13 -12 11 -12 -6z"/>
<path d="M7820 5056 c0 -2 11 -6 25 -8 13 -3 22 -1 19 3 -5 9 -44 13 -44 5z"/>
<path d="M2283 5043 c9 -2 25 -2 35 0 9 3 1 5 -18 5 -19 0 -27 -2 -17 -5z"/>
<path d="M6996 5035 c-11 -8 -15 -15 -9 -15 6 0 16 7 23 15 16 19 11 19 -14 0z"/>
<path d="M4172 5011 c-11 -6 -9 -9 6 -13 15 -4 19 -2 15 8 -6 16 -4 16 -21 5z"/>
<path d="M4399 4993 l-24 -28 28 24 c25 23 32 31 24 31 -2 0 -14 -12 -28 -27z"/>
<path d="M7005 5010 c-3 -6 -17 -7 -30 -4 -12 3 -26 1 -29 -4 -4 -6 3 -8 16
-5 23 5 23 5 3 -11 -19 -16 -18 -16 12 -2 28 14 52 36 39 36 -3 0 -8 -5 -11
-10z"/>
<path d="M6906 4966 c4 -11 0 -16 -11 -16 -9 0 -13 5 -10 11 4 6 -2 5 -14 -3
-17 -10 -18 -14 -6 -21 27 -15 71 22 45 38 -6 3 -7 -1 -4 -9z"/>
<path d="M4376 4928 c3 -5 10 -6 15 -3 13 9 11 12 -6 12 -8 0 -12 -4 -9 -9z"/>
<path d="M6755 4905 c-38 -19 -76 -34 -82 -35 -7 0 -13 -4 -13 -10 0 -5 7 -6
17 -3 11 4 14 3 9 -5 -5 -8 -2 -10 8 -6 9 3 16 12 16 20 0 8 5 14 11 14 5 0 7
-4 4 -10 -3 -5 -4 -10 -2 -10 11 0 137 59 137 64 0 3 -7 2 -17 -1 -11 -4 -14
-3 -9 5 11 18 -2 14 -79 -23z m40 -5 c-22 -10 -44 -18 -50 -18 -5 0 8 8 30 19
22 10 45 18 50 18 6 0 -8 -9 -30 -19z"/>
<path d="M4010 4910 c-9 -6 -10 -10 -3 -10 6 0 15 5 18 10 8 12 4 12 -15 0z"/>
<path d="M4331 4902 c-7 -14 -6 -18 9 -18 13 0 16 4 10 12 -6 6 -7 14 -3 17 3
4 3 7 0 7 -3 0 -11 -8 -16 -18z"/>
<path d="M3941 4893 c-7 -7 -16 -11 -21 -8 -5 3 -42 -11 -81 -31 -53 -26 -68
-38 -58 -45 8 -5 19 -9 24 -9 6 0 3 5 -5 10 -12 8 -10 10 8 10 13 0 20 4 17
10 -3 6 1 10 10 10 9 0 13 -5 9 -11 -3 -6 8 -4 24 5 17 9 34 20 37 26 4 6 10
8 15 5 5 -3 14 0 22 7 7 7 19 13 27 13 8 0 16 5 18 12 6 16 -30 13 -46 -4z"/>
<path d="M4287 4826 c-15 -32 -15 -35 1 -47 14 -11 15 -11 5 0 -13 15 -6 44 8
35 5 -3 6 -10 3 -16 -4 -7 -2 -8 5 -4 9 6 9 11 1 21 -6 7 -8 20 -4 29 11 29
-2 17 -19 -18z"/>
<path d="M7890 4851 c0 -5 -3 -18 -6 -28 -5 -15 -3 -15 7 2 7 11 17 23 23 27
7 5 4 8 -6 8 -10 0 -18 -4 -18 -9z"/>
<path d="M6616 4805 c-9 -26 -7 -32 5 -12 6 10 9 21 6 23 -2 3 -7 -2 -11 -11z"/>
<path d="M3732 4803 c-6 -2 -9 -9 -6 -15 3 -5 0 -8 -7 -7 -15 3 -28 -3 -171
-70 -84 -39 -100 -52 -78 -66 6 -3 7 1 4 9 -6 16 10 23 19 9 2 -5 3 -3 1 4 -1
6 6 13 17 16 17 5 18 3 8 -10 -8 -8 11 -3 44 13 31 15 53 32 50 38 -4 6 1 7
12 2 14 -5 25 0 38 16 10 13 16 17 12 11 -4 -9 -1 -11 9 -7 9 3 14 10 11 14
-3 5 3 8 12 8 10 0 31 5 48 11 23 10 26 14 15 21 -16 11 -19 11 -38 3z m-162
-103 c-8 -5 -19 -10 -25 -10 -5 0 -3 5 5 10 8 5 20 10 25 10 6 0 3 -5 -5 -10z"/>
<path d="M6601 4763 c-1 -6 -4 -20 -7 -30 -5 -17 -5 -17 6 0 6 10 9 23 6 30
-3 9 -5 9 -5 0z"/>
<path d="M4275 4749 c-4 -6 -5 -12 -2 -15 2 -3 7 2 10 11 7 17 1 20 -8 4z"/>
<path d="M6248 4744 c-4 -3 -80 -9 -170 -13 l-163 -8 136 -1 c147 -2 232 5
223 19 -6 10 -18 12 -26 3z"/>
<path d="M5853 4733 c9 -2 25 -2 35 0 9 3 1 5 -18 5 -19 0 -27 -2 -17 -5z"/>
<path d="M4226 4705 c-9 -26 -7 -32 5 -12 6 10 9 21 6 23 -2 3 -7 -2 -11 -11z"/>
<path d="M4246 4683 c-6 -14 -5 -15 5 -6 7 7 10 15 7 18 -3 3 -9 -2 -12 -12z"/>
<path d="M3424 4649 c-4 -8 -3 -9 4 -5 7 4 12 3 12 -2 0 -6 -7 -13 -16 -16
-22 -8 -26 -8 -19 4 3 6 -1 7 -10 3 -12 -4 -13 -8 -5 -13 8 -5 7 -9 -4 -13 -8
-3 -18 -2 -21 3 -7 11 -66 -15 -64 -28 3 -18 -2 -26 -10 -14 -6 11 -28 3 -97
-33 -49 -25 -89 -51 -89 -57 0 -6 -6 -13 -14 -16 -10 -3 -11 0 -5 9 5 9 -1 8
-19 -4 -15 -9 -27 -15 -27 -12 0 4 -14 -3 -30 -15 -17 -12 -28 -25 -25 -30 3
-4 -2 -11 -11 -14 -29 -11 -38 -6 -18 9 14 12 10 11 -19 -2 -30 -14 -34 -19
-21 -23 15 -6 15 -7 2 -12 -9 -4 -20 -2 -25 3 -12 12 -85 -39 -77 -54 5 -9 4
-9 -6 0 -10 9 -19 9 -41 -3 -31 -16 -39 -27 -12 -17 11 5 14 3 9 -6 -5 -7 -16
-11 -25 -8 -11 2 -18 -1 -18 -9 0 -19 0 -19 79 22 42 23 67 42 64 50 -3 7 2
15 11 18 11 4 14 2 10 -8 -4 -10 13 -5 53 15 33 17 60 35 60 40 0 6 5 7 10 4
6 -4 9 -1 8 6 -2 6 3 14 11 17 8 3 11 0 7 -7 -5 -7 -1 -9 8 -5 9 3 14 10 11
14 -3 5 3 8 12 8 10 -1 103 41 206 93 158 80 186 97 174 107 -12 10 -17 10
-23 1z m-74 -54 c-7 -8 -18 -15 -24 -15 -6 0 -2 7 8 15 25 19 32 19 16 0z
m-80 -45 c-24 -15 -36 -11 -14 4 10 8 21 12 24 10 2 -3 -2 -9 -10 -14z m-45
-19 c-6 -5 -21 -11 -35 -15 -21 -5 -20 -3 5 9 35 17 42 18 30 6z m-65 -35 c0
-2 -7 -7 -16 -10 -8 -3 -12 -2 -9 4 6 10 25 14 25 6z m-310 -161 c-7 -9 -15
-13 -19 -10 -3 3 1 10 9 15 21 14 24 12 10 -5z m-55 -25 c-3 -5 -12 -10 -18
-10 -7 0 -6 4 3 10 19 12 23 12 15 0z"/>
<path d="M7151 4655 c1 -19 18 -51 18 -35 0 8 -4 22 -9 30 -5 8 -9 11 -9 5z"/>
<path d="M7808 4615 c-3 -11 -9 -29 -13 -40 -3 -11 1 -7 10 8 9 16 15 33 12
40 -2 6 -6 3 -9 -8z"/>
<path d="M5681 4585 c0 -22 4 -49 9 -60 7 -15 9 -9 9 25 0 25 -4 52 -9 60 -7
11 -10 4 -9 -25z"/>
<path d="M6810 4549 c-30 -27 -45 -44 -32 -37 12 7 22 16 22 21 0 4 5 5 10 2
6 -4 7 -11 3 -18 -3 -6 8 -1 25 12 37 26 44 39 9 16 -37 -24 -39 -6 -4 26 18
15 30 28 27 29 -3 0 -30 -23 -60 -51z"/>
<path d="M4156 4535 c-9 -26 -7 -32 5 -12 6 10 9 21 6 23 -2 3 -7 -2 -11 -11z"/>
<path d="M7173 4515 c0 -22 2 -30 4 -17 2 12 2 30 0 40 -3 9 -5 -1 -4 -23z"/>
<path d="M4136 4485 c-9 -26 -7 -32 5 -12 6 10 9 21 6 23 -2 3 -7 -2 -11 -11z"/>
<path d="M5672 4483 c8 -10 8 -12 -3 -8 -10 3 -22 -15 -41 -61 -18 -43 -22
-62 -13 -54 9 7 15 8 15 2 0 -14 -25 -33 -33 -25 -6 6 -9 -4 -6 -23 0 -4 -3
-10 -8 -13 -18 -12 -43 -56 -43 -76 0 -23 56 -136 102 -207 37 -59 49 -64 13
-5 -76 124 -112 218 -91 236 7 6 16 8 20 4 4 -4 4 1 0 11 -5 13 -4 17 4 12 8
-5 10 -1 5 10 -4 12 -3 15 5 10 11 -6 14 0 11 20 0 4 4 10 10 14 7 3 21 30 32
59 11 29 14 49 8 45 -7 -4 -10 -2 -8 5 3 7 8 12 13 11 10 -2 26 20 26 36 0 6
-7 11 -15 11 -11 0 -12 -4 -3 -14z"/>
<path d="M6730 4475 c-19 -23 -8 -25 14 -4 11 11 15 19 9 19 -6 0 -16 -7 -23
-15z"/>
<path d="M7756 4465 c-9 -26 -7 -32 5 -12 6 10 9 21 6 23 -2 3 -7 -2 -11 -11z"/>
<path d="M6531 4454 c0 -11 3 -14 6 -6 3 7 2 16 -1 19 -3 4 -6 -2 -5 -13z"/>
<path d="M7163 4425 c0 -22 2 -30 4 -17 2 12 2 30 0 40 -3 9 -5 -1 -4 -23z"/>
<path d="M4092 4353 c-17 -53 -30 -99 -28 -101 2 -2 18 40 36 93 18 53 30 98
28 100 -2 2 -18 -39 -36 -92z"/>
<path d="M6691 4426 c-8 -10 -8 -16 2 -25 11 -8 18 -6 31 8 12 13 14 21 6 26
-6 3 -9 3 -8 -2 2 -4 -1 -9 -7 -10 -5 -2 -9 2 -7 7 3 14 -3 12 -17 -4z"/>
<path d="M7726 4374 c-4 -14 -5 -28 -3 -31 3 -2 8 8 11 23 4 14 5 28 3 31 -3
2 -8 -8 -11 -23z"/>
<path d="M6650 4378 c0 -3 6 -11 14 -17 10 -9 17 -7 27 6 12 16 12 17 -2 6
-12 -10 -18 -10 -27 -1 -7 7 -12 9 -12 6z"/>
<path d="M7146 4339 c-4 -23 -5 -44 -2 -46 2 -2 7 14 11 37 4 23 5 43 2 46 -2
3 -7 -14 -11 -37z"/>
<path d="M6635 4350 c-4 -6 -3 -10 2 -9 21 4 24 -2 12 -18 -13 -16 -12 -17 4
-4 13 10 15 17 6 27 -14 17 -16 17 -24 4z"/>
<path d="M6611 4316 c-9 -11 -9 -16 1 -22 7 -4 10 -4 6 1 -4 4 -3 14 3 22 6 7
9 13 6 13 -2 0 -10 -6 -16 -14z"/>
<path d="M8191 4291 c-6 -10 -7 -21 -3 -25 3 -4 1 -11 -7 -15 -10 -7 -10 -9 2
-14 10 -4 14 1 12 16 0 12 3 30 7 40 12 23 1 22 -11 -2z"/>
<path d="M6592 4283 c2 -6 -7 -19 -18 -29 -12 -11 -31 -37 -43 -59 -14 -25
-15 -31 -4 -15 37 51 75 90 83 85 5 -3 12 0 16 7 4 7 4 10 -1 6 -4 -4 -14 -3
-22 4 -8 7 -13 7 -11 1z"/>
<path d="M2678 4262 c-17 -11 -24 -22 -19 -30 9 -15 43 7 47 32 3 20 5 20 -28
-2z m17 -12 c-3 -5 -11 -10 -16 -10 -6 0 -7 5 -4 10 3 6 11 10 16 10 6 0 7 -4
4 -10z"/>
<path d="M7131 4264 c0 -11 3 -14 6 -6 3 7 2 16 -1 19 -3 4 -6 -2 -5 -13z"/>
<path d="M4026 4149 c-15 -50 -25 -93 -22 -96 2 -2 7 10 11 28 6 24 9 28 17
18 8 -11 8 -10 4 4 -3 10 1 43 10 74 9 30 14 56 12 59 -3 2 -17 -37 -32 -87z"/>
<path d="M2588 4214 c-38 -20 -36 -28 2 -9 17 9 30 18 30 20 0 7 -1 6 -32 -11z"/>
<path d="M5051 4225 c0 -5 6 -19 14 -29 8 -11 15 -28 15 -37 0 -10 5 -21 10
-24 18 -11 10 19 -15 60 -13 22 -24 36 -24 30z"/>
<path d="M6569 4203 c-13 -16 -12 -17 4 -4 9 7 17 15 17 17 0 8 -8 3 -21 -13z"/>
<path d="M8140 4174 c-22 -50 -26 -71 -9 -40 8 13 13 15 19 6 5 -8 9 -7 13 5
4 9 3 13 -3 10 -13 -8 -13 7 0 39 16 44 2 29 -20 -20z"/>
<path d="M7111 4198 c0 -9 -4 -25 -7 -35 -5 -17 -5 -17 6 0 6 10 9 25 7 35 -4
15 -5 15 -6 0z"/>
<path d="M2534 4178 c-4 -7 -4 -10 1 -6 4 4 14 3 21 -3 9 -7 14 -6 20 3 4 7 4
10 -1 6 -4 -4 -14 -3 -21 3 -9 7 -14 6 -20 -3z"/>
<path d="M2515 4140 c-3 -6 1 -7 9 -4 18 7 21 14 7 14 -6 0 -13 -4 -16 -10z"/>
<path d="M7646 4135 c-3 -9 -6 -22 -5 -28 0 -7 5 -1 10 12 5 13 8 26 5 28 -2
2 -6 -3 -10 -12z"/>
<path d="M2443 4123 c-10 -10 -14 -15 -9 -10 14 10 28 9 22 -2 -4 -5 3 -7 14
-4 11 3 22 9 25 13 3 5 -5 6 -17 2 -14 -3 -19 -2 -14 6 10 17 1 15 -21 -5z"/>
<path d="M6486 4123 c-6 -14 -5 -15 5 -6 7 7 10 15 7 18 -3 3 -9 -2 -12 -12z"/>
<path d="M6515 4119 c-4 -6 -5 -12 -2 -15 2 -3 7 2 10 11 7 17 1 20 -8 4z"/>
<path d="M5095 4109 c-4 -6 -5 -12 -2 -15 2 -3 7 2 10 11 7 17 1 20 -8 4z"/>
<path d="M7071 4079 c-13 -39 -14 -46 -2 -33 9 10 24 64 17 64 -2 0 -9 -14
-15 -31z"/>
<path d="M8107 4097 c-3 -9 -2 -17 3 -17 6 0 10 -5 10 -11 0 -5 -4 -8 -10 -4
-11 7 -52 -69 -43 -79 4 -3 1 -6 -7 -6 -10 0 -10 -3 0 -15 11 -13 10 -14 -6
-8 -16 6 -17 5 -6 -9 9 -11 10 -18 2 -23 -5 -3 -10 0 -10 7 -1 7 -14 -12 -29
-42 -16 -30 -27 -58 -24 -62 2 -5 -1 -8 -8 -8 -8 0 -9 -4 0 -13 8 -10 7 -19
-4 -33 -13 -18 -14 -18 -9 6 5 24 5 24 -10 6 -12 -15 -13 -23 -4 -33 9 -11 14
-9 29 13 9 15 15 34 11 42 -3 9 -1 13 5 9 6 -4 13 0 16 8 4 9 1 12 -9 8 -12
-4 -10 5 8 39 13 25 28 44 34 41 12 -4 48 69 49 101 0 11 5 22 10 24 13 4 38
52 31 60 -3 3 -6 -1 -7 -9 0 -8 -3 -6 -8 5 -7 18 -8 18 -14 3z"/>
<path d="M2360 4070 l-25 -21 28 12 c15 7 27 16 27 21 0 11 -1 10 -30 -12z"/>
<path d="M7631 4083 c-1 -6 -4 -20 -7 -30 -5 -17 -5 -17 6 0 6 10 9 23 6 30
-3 9 -5 9 -5 0z"/>
<path d="M6445 4049 c-9 -17 -15 -33 -13 -35 3 -2 12 12 21 31 21 43 13 47 -8
4z"/>
<path d="M6480 4065 c-7 -9 -10 -18 -7 -21 3 -3 10 4 17 15 13 25 8 27 -10 6z"/>
<path d="M5106 4045 c-3 -9 -5 -42 -4 -73 l1 -57 7 70 c7 75 6 85 -4 60z"/>
<path d="M2273 4011 c-53 -38 -80 -61 -54 -46 9 5 12 4 7 -3 -4 -7 -15 -12
-25 -12 -23 0 -91 -71 -91 -95 0 -16 5 -14 33 12 17 17 73 61 122 98 50 37 92
69 93 70 2 2 -6 1 -19 -2 -15 -4 -20 -3 -15 5 11 17 6 15 -51 -27z m32 -3
c-11 -6 -24 -17 -28 -25 -4 -7 -16 -13 -25 -12 -12 0 -13 2 -3 6 7 3 22 14 32
24 11 11 25 19 32 19 6 0 3 -6 -8 -12z m-105 -78 c0 -5 -2 -10 -4 -10 -3 0 -8
5 -11 10 -3 6 -1 10 4 10 6 0 11 -4 11 -10z m-55 -50 c-10 -11 -20 -18 -23
-15 -7 6 18 35 31 35 5 0 2 -9 -8 -20z"/>
<path d="M3982 3998 c-6 -23 -9 -44 -7 -46 2 -2 9 15 15 38 6 23 9 44 7 46 -2
3 -9 -14 -15 -38z"/>
<path d="M6050 4031 c0 -7 -10 -10 -25 -7 -14 3 -28 -1 -32 -8 -5 -7 -36 -31
-70 -55 -45 -32 -60 -47 -55 -59 5 -15 4 -16 -13 -2 -17 14 -18 13 -11 -5 6
-16 5 -17 -5 -8 -9 9 -20 6 -48 -15 -20 -14 -37 -27 -39 -28 -1 0 13 -34 32
-75 19 -41 37 -91 41 -112 6 -33 25 -63 25 -39 0 18 -38 119 -65 171 -19 39
-23 52 -11 48 8 -3 32 6 53 20 125 84 153 107 148 120 -3 10 1 13 13 9 19 -6
81 39 69 50 -4 4 -7 2 -7 -5z m-31 -28 c-6 -7 -17 -13 -23 -12 -7 0 -6 2 2 6
6 2 10 8 8 12 -3 4 1 8 9 8 11 0 12 -4 4 -14z m-50 -36 c-2 -1 -13 -9 -24 -17
-19 -14 -19 -14 -6 3 7 9 18 17 24 17 6 0 8 -1 6 -3z m-143 -99 c4 -7 4 -10
-1 -6 -4 4 -14 0 -22 -8 -9 -8 -18 -12 -21 -9 -3 3 3 12 14 20 23 18 21 18 30
3z"/>
<path d="M7075 4029 c-4 -6 -5 -12 -2 -15 2 -3 7 2 10 11 7 17 1 20 -8 4z"/>
<path d="M7611 4014 c0 -11 3 -14 6 -6 3 7 2 16 -1 19 -3 4 -6 -2 -5 -13z"/>
<path d="M7631 4004 c0 -11 3 -14 6 -6 3 7 2 16 -1 19 -3 4 -6 -2 -5 -13z"/>
<path d="M6445 3999 c-4 -6 -5 -12 -2 -15 2 -3 7 2 10 11 7 17 1 20 -8 4z"/>
<path d="M7026 3960 c-22 -56 -19 -65 5 -11 11 24 18 46 15 48 -2 2 -11 -14
-20 -37z"/>
<path d="M7056 3975 c-9 -26 -7 -32 5 -12 6 10 9 21 6 23 -2 3 -7 -2 -11 -11z"/>
<path d="M7601 3974 c0 -11 3 -14 6 -6 3 7 2 16 -1 19 -3 4 -6 -2 -5 -13z"/>
<path d="M5409 3963 c-13 -16 -12 -17 4 -4 16 13 21 21 13 21 -2 0 -10 -8 -17
-17z"/>
<path d="M7581 3904 c-7 -26 -9 -49 -6 -52 3 -3 5 3 5 14 0 12 3 15 8 7 4 -6
8 9 9 33 1 24 0 44 -2 44 -1 0 -8 -21 -14 -46z"/>
<path d="M3947 3878 c-15 -49 -16 -63 -5 -69 7 -4 15 -6 17 -3 3 3 0 9 -7 13
-9 6 -10 15 -1 40 9 24 14 29 20 19 6 -8 6 1 3 22 -4 19 -7 36 -8 37 -1 1 -9
-26 -19 -59z"/>
<path d="M7033 3915 c-3 -9 -3 -18 -1 -21 3 -3 8 4 11 16 6 23 -1 27 -10 5z"/>
<path d="M5101 3890 c0 -8 4 -24 9 -35 5 -13 9 -14 9 -5 0 8 -4 24 -9 35 -5
13 -9 14 -9 5z"/>
<path d="M6350 3861 c0 -6 4 -13 10 -16 6 -3 7 1 4 9 -7 18 -14 21 -14 7z"/>
<path d="M3961 3844 c0 -11 3 -14 6 -6 3 7 2 16 -1 19 -3 4 -6 -2 -5 -13z"/>
<path d="M5325 3841 c-3 -5 -2 -12 3 -15 5 -3 9 1 9 9 0 17 -3 19 -12 6z"/>
<path d="M5091 3824 c0 -11 3 -14 6 -6 3 7 2 16 -1 19 -3 4 -6 -2 -5 -13z"/>
<path d="M7561 3824 c0 -11 3 -14 6 -6 3 7 2 16 -1 19 -3 4 -6 -2 -5 -13z"/>
<path d="M3921 3784 c0 -11 3 -14 6 -6 3 7 2 16 -1 19 -3 4 -6 -2 -5 -13z"/>
<path d="M7546 3764 c-4 -14 -5 -28 -3 -31 3 -2 8 8 11 23 4 14 5 28 3 31 -3
2 -8 -8 -11 -23z"/>
<path d="M3911 3744 c0 -11 3 -14 6 -6 3 7 2 16 -1 19 -3 4 -6 -2 -5 -13z"/>
<path d="M3931 3734 c0 -11 3 -14 6 -6 3 7 2 16 -1 19 -3 4 -6 -2 -5 -13z"/>
<path d="M7905 3708 c-16 -23 -28 -48 -28 -55 0 -6 -3 -11 -6 -10 -3 1 -33
-27 -66 -62 -33 -35 -73 -70 -88 -78 -23 -11 -26 -17 -17 -28 17 -21 42 -5
126 79 82 82 130 157 116 181 -7 13 -14 9 -37 -27z m35 14 c0 -5 -12 -22 -26
-38 -24 -27 -25 -27 -14 -4 21 41 40 61 40 42z m-103 -137 c0 -8 -4 -12 -8
-10 -4 3 -9 -2 -13 -10 -3 -8 -10 -15 -16 -15 -5 0 0 11 12 25 25 29 25 29 25
10z m-67 -64 c-13 -26 -51 -52 -63 -44 -5 3 -3 9 4 14 7 4 16 6 20 3 4 -2 14
7 23 21 19 30 31 34 16 6z"/>
<path d="M5104 3644 c-18 -14 -18 -15 4 -4 12 6 22 13 22 15 0 8 -5 6 -26 -11z"/>
<path d="M6271 3619 c-7 -22 -11 -43 -8 -45 2 -2 9 14 16 37 7 22 11 43 8 45
-2 2 -9 -14 -16 -37z"/>
<path d="M7522 3640 c0 -14 2 -19 5 -12 2 6 2 18 0 25 -3 6 -5 1 -5 -13z"/>
<path d="M3872 3600 c0 -14 2 -19 5 -12 2 6 2 18 0 25 -3 6 -5 1 -5 -13z"/>
<path d="M5040 3610 c-9 -6 -10 -10 -3 -10 6 0 15 5 18 10 8 12 4 12 -15 0z"/>
<path d="M7205 3594 c-9 -14 -15 -27 -13 -30 2 -2 12 10 22 26 21 37 15 40 -9
4z"/>
<path d="M5847 3583 c-4 -3 -6 -29 -6 -57 l1 -51 9 54 c9 54 8 67 -4 54z"/>
<path d="M7170 3546 c0 -2 8 -10 18 -17 15 -13 16 -12 3 4 -13 16 -21 21 -21
13z"/>
<path d="M7157 3523 c-4 -3 -2 -12 4 -19 7 -8 7 -14 -1 -19 -5 -3 -10 -1 -10
4 0 6 -5 11 -11 11 -8 0 -8 -5 1 -15 15 -18 39 -4 36 20 -3 19 -11 27 -19 18z"/>
<path d="M6231 3474 c0 -11 3 -14 6 -6 3 7 2 16 -1 19 -3 4 -6 -2 -5 -13z"/>
<path d="M7085 3437 c-22 -22 -40 -46 -40 -53 0 -7 -9 -20 -20 -29 -19 -15
-18 -15 11 -1 31 15 104 89 104 105 0 24 -19 16 -55 -22z m45 23 c0 -14 -66
-80 -73 -73 -3 2 11 22 31 43 42 44 42 44 42 30z"/>
<path d="M5831 3424 c0 -11 3 -14 6 -6 3 7 2 16 -1 19 -3 4 -6 -2 -5 -13z"/>
<path d="M5852 3420 c0 -14 2 -19 5 -12 2 6 2 18 0 25 -3 6 -5 1 -5 -13z"/>
<path d="M7565 3430 c11 -5 27 -9 35 -9 9 0 8 4 -5 9 -11 5 -27 9 -35 9 -9 0
-8 -4 5 -9z"/>
<path d="M7478 3423 c12 -2 30 -2 40 0 9 3 -1 5 -23 4 -22 0 -30 -2 -17 -4z"/>
<path d="M3943 3389 c-35 -22 -46 -37 -15 -20 22 13 58 40 52 41 -3 0 -20 -10
-37 -21z"/>
<path d="M5841 3374 c0 -11 3 -14 6 -6 3 7 2 16 -1 19 -3 4 -6 -2 -5 -13z"/>
<path d="M6995 3360 c-25 -27 -28 -51 -7 -42 11 4 12 7 3 10 -9 3 -6 11 10 28
12 13 20 24 17 24 -3 0 -13 -9 -23 -20z"/>
<path d="M4920 3310 c-17 -33 -28 -60 -25 -60 2 0 18 27 35 60 17 33 28 60 25
60 -2 0 -18 -27 -35 -60z"/>
<path d="M3880 3350 c-9 -6 -10 -10 -3 -10 6 0 15 5 18 10 8 12 4 12 -15 0z"/>
<path d="M3823 3329 c-2 -20 5 -23 24 -11 7 4 9 12 5 17 -12 17 -28 14 -29 -6z"/>
<path d="M6197 3343 c-4 -3 -7 -13 -7 -22 1 -13 3 -13 11 2 11 19 8 33 -4 20z"/>
<path d="M5796 3323 c-6 -14 -5 -15 5 -6 7 7 10 15 7 18 -3 3 -9 -2 -12 -12z"/>
<path d="M3790 3315 c0 -8 2 -15 4 -15 2 0 6 7 10 15 3 8 1 15 -4 15 -6 0 -10
-7 -10 -15z"/>
<path d="M6850 3298 c0 -11 22 -10 39 1 10 7 7 9 -12 8 -15 -1 -27 -5 -27 -9z"/>
<path d="M6177 3271 c-4 -19 -5 -36 -2 -39 3 -3 5 1 5 9 0 11 2 11 10 -1 9
-13 10 -13 9 0 -1 8 -4 26 -8 40 -7 24 -7 24 -14 -9z"/>
<path d="M3781 3274 c0 -11 3 -14 6 -6 3 7 2 16 -1 19 -3 4 -6 -2 -5 -13z"/>
<path d="M4915 3239 c-4 -6 -5 -12 -2 -15 2 -3 7 2 10 11 7 17 1 20 -8 4z"/>
<path d="M5723 3210 c-19 -23 -20 -30 -9 -39 10 -9 16 -9 21 -1 4 6 3 10 -2 9
-23 -4 -24 3 -3 26 13 14 22 27 19 29 -2 2 -14 -9 -26 -24z"/>
<path d="M6181 3204 c0 -11 3 -14 6 -6 3 7 2 16 -1 19 -3 4 -6 -2 -5 -13z"/>
<path d="M4854 3188 c-3 -4 2 -8 11 -8 9 0 13 -4 10 -10 -3 -5 -4 -10 -1 -10
3 0 10 8 15 18 8 14 6 18 -11 18 -10 0 -22 -4 -24 -8z"/>
<path d="M6060 3170 c0 -5 10 -10 23 -10 18 0 19 2 7 10 -19 13 -30 13 -30 0z"/>
<path d="M6133 3173 c9 -2 23 -2 30 0 6 3 -1 5 -18 5 -16 0 -22 -2 -12 -5z"/>
<path d="M4843 3164 c3 -6 -3 -17 -14 -24 -10 -8 -19 -18 -19 -22 0 -7 -37
-52 -77 -93 -10 -10 -9 -15 2 -25 11 -9 24 2 69 56 52 63 63 92 41 111 -4 5
-5 3 -2 -3z m-16 -66 c-15 -18 -40 -49 -57 -68 -26 -30 -28 -31 -17 -8 15 29
89 116 96 111 2 -1 -8 -17 -22 -35z"/>
<path d="M5681 3157 c-8 -10 -7 -14 2 -14 8 0 14 6 14 14 0 7 -1 13 -2 13 -2
0 -8 -6 -14 -13z"/>
<path d="M5958 3163 c-10 -2 -18 -8 -18 -13 0 -4 9 -6 20 -3 11 3 20 9 20 14
0 5 -1 8 -2 8 -2 -1 -11 -3 -20 -6z"/>
<path d="M5990 3160 c0 -5 7 -10 15 -10 8 0 15 5 15 10 0 6 -7 10 -15 10 -8 0
-15 -4 -15 -10z"/>
<path d="M3741 3134 c0 -11 3 -14 6 -6 3 7 2 16 -1 19 -3 4 -6 -2 -5 -13z"/>
<path d="M5630 3117 c-14 -12 -37 -29 -50 -39 -21 -14 -23 -18 -11 -30 8 -7
11 -8 7 -1 -4 7 0 11 11 10 10 0 30 7 46 17 30 20 35 28 11 19 -14 -5 -14 -3
-3 15 9 15 16 18 21 9 5 -9 10 -9 18 1 5 6 7 10 4 7 -4 -3 -12 -1 -18 4 -7 6
-20 1 -36 -12z m0 -32 c0 -2 -9 -9 -20 -15 -12 -6 -20 -7 -20 -1 0 5 8 12 18
14 9 3 18 5 20 6 1 0 2 -1 2 -4z"/>
<path d="M5540 3050 c0 -6 -4 -9 -8 -6 -5 3 -25 -1 -46 -8 -36 -13 -37 -13
-12 -18 14 -3 23 -2 21 2 -3 5 2 10 10 14 8 3 15 1 15 -3 0 -5 9 -7 20 -4 22
6 26 18 10 28 -5 3 -10 1 -10 -5z"/>
<path d="M5420 3010 c8 -5 24 -9 35 -9 l20 0 -20 9 c-11 5 -27 9 -35 9 -13 1
-13 0 0 -9z"/>
<path d="M5281 3006 c2 -2 36 -6 74 -9 41 -3 60 -2 45 3 -25 8 -127 13 -119 6z"/>
<path d="M4678 2973 c-13 -16 -33 -33 -44 -40 -10 -6 -18 -17 -16 -23 2 -7 -3
-10 -11 -7 -8 3 -14 -1 -14 -9 0 -8 4 -14 7 -14 13 0 30 27 22 35 -4 4 2 5 14
1 25 -8 102 53 90 72 -11 18 -22 15 -48 -15z m11 -24 c-46 -39 -54 -36 -17 6
17 19 35 32 41 28 5 -3 -6 -18 -24 -34z"/>
<path d="M3656 2883 c-20 -60 -48 -134 -62 -167 -13 -32 -23 -60 -21 -62 5 -5
47 96 85 206 37 104 45 130 39 130 -3 0 -21 -48 -41 -107z"/>
<path d="M4551 2886 c-18 -10 -21 -15 -10 -20 8 -3 3 -4 -11 -2 -14 2 -34 0
-45 -5 -16 -7 -14 -8 8 -4 19 4 26 2 22 -5 -9 -15 7 -12 31 5 12 8 23 12 26
10 2 -2 4 5 5 15 1 11 1 20 0 20 -1 -1 -13 -7 -26 -14z"/>
<path d="M4318 2843 c7 -3 16 -2 19 1 4 3 -2 6 -13 5 -11 0 -14 -3 -6 -6z"/>
<path d="M4412 2841 c-8 -5 6 -8 35 -8 37 0 42 2 23 7 -34 11 -43 11 -58 1z"/>
<path d="M4358 2833 c6 -2 18 -2 25 0 6 3 1 5 -13 5 -14 0 -19 -2 -12 -5z"/>
<path d="M3615 2709 c-4 -6 -5 -12 -2 -15 2 -3 7 2 10 11 7 17 1 20 -8 4z"/>
<path d="M3522 2542 c-24 -48 -25 -58 -3 -23 12 18 21 37 19 42 -2 4 -9 -4
-16 -19z"/>
<path d="M3447 2382 c-26 -53 -41 -88 -32 -78 8 11 15 24 15 29 0 4 5 5 12 1
6 -4 8 -3 5 3 -9 14 16 64 29 59 6 -2 19 12 28 32 13 30 13 33 1 18 -8 -11
-15 -23 -15 -28 0 -4 -5 -8 -10 -8 -6 0 -4 14 5 31 9 17 15 33 13 35 -2 2 -25
-40 -51 -94z"/>
<path d="M3421 2282 c-17 -31 -13 -40 5 -14 9 13 14 26 11 29 -3 2 -10 -4 -16
-15z"/>
<path d="M3386 2263 c-6 -14 -5 -15 5 -6 7 7 10 15 7 18 -3 3 -9 -2 -12 -12z"/>
<path d="M3370 2234 c0 -1 6 -7 14 -13 10 -9 15 -8 19 2 3 8 -3 13 -14 13 -11
0 -19 -1 -19 -2z"/>
<path d="M3315 2129 c-4 -6 -5 -12 -2 -15 2 -3 7 2 10 11 7 17 1 20 -8 4z"/>
<path d="M3295 2071 c3 -10 -1 -24 -10 -31 -8 -7 -15 -19 -15 -27 0 -8 -5 -11
-10 -8 -7 4 -7 13 0 26 21 39 1 18 -29 -30 -24 -40 -27 -52 -16 -61 10 -8 22
4 58 62 43 68 49 88 26 88 -6 0 -8 -8 -4 -19z m-52 -101 c-9 -16 -20 -27 -24
-24 -4 2 0 17 9 33 9 16 20 27 24 25 5 -3 1 -18 -9 -34z"/>
<path d="M3159 1893 c-13 -17 -13 -17 6 -3 11 8 22 16 24 17 2 2 0 3 -6 3 -6
0 -17 -8 -24 -17z"/>
<path d="M3177 1883 c-4 -3 -7 -11 -7 -17 0 -6 5 -5 12 2 6 6 9 14 7 17 -3 3
-9 2 -12 -2z"/>
<path d="M3149 1833 c-13 -16 -12 -17 4 -4 16 13 21 21 13 21 -2 0 -10 -8 -17
-17z"/>
<path d="M3099 1813 c-13 -17 -13 -17 6 -3 11 8 22 16 24 17 2 2 0 3 -6 3 -6
0 -17 -8 -24 -17z"/>
<path d="M3114 1788 l-19 -23 23 19 c12 11 22 21 22 23 0 8 -8 2 -26 -19z"/>
<path d="M3065 1771 c-3 -5 -1 -13 5 -16 8 -5 7 -11 -1 -21 -17 -20 -34 -17
-19 4 7 9 -22 -19 -63 -62 -42 -44 -73 -85 -70 -92 3 -9 -2 -12 -16 -9 -20 4
-36 -9 -36 -30 0 -5 -5 -10 -10 -10 -6 0 -26 -12 -45 -27 -27 -21 -32 -30 -23
-39 9 -9 20 -4 47 23 20 20 37 34 39 32 3 -4 172 167 212 214 11 13 15 23 10
22 -21 -5 -29 1 -15 10 9 6 10 10 3 10 -6 0 -14 -4 -18 -9z m-34 -64 c-6 -8
-7 -18 -3 -22 4 -5 1 -5 -5 -1 -8 4 -13 2 -13 -6 0 -13 -34 -48 -75 -78 -19
-14 5 17 69 88 29 31 50 46 27 19z m-205 -213 c-15 -14 -31 -23 -33 -20 -3 3
8 16 23 30 16 13 31 22 34 19 3 -2 -8 -16 -24 -29z"/>
<path d="M2745 1460 c-3 -6 1 -7 9 -4 18 7 21 14 7 14 -6 0 -13 -4 -16 -10z"/>
<path d="M2710 1440 c-8 -5 -10 -10 -5 -10 6 0 4 -4 -3 -9 -11 -7 -11 -9 1
-14 7 -3 27 6 43 19 l29 25 -30 -18 c-27 -17 -29 -17 -22 0 7 20 7 20 -13 7z"/>
<path d="M2641 1401 c-27 -14 -30 -19 -17 -24 10 -4 15 -3 11 3 -3 6 -2 10 2
10 5 0 18 7 29 15 26 19 16 18 -25 -4z"/>
<path d="M2583 1350 c-34 -14 -28 -21 7 -9 17 6 30 13 30 15 0 6 -12 4 -37 -6z"/>
<path d="M2300 1316 c0 -8 61 -12 66 -4 3 4 -11 8 -30 8 -20 0 -36 -2 -36 -4z"/>
<path d="M2413 1303 c9 -2 23 -2 30 0 6 3 -1 5 -18 5 -16 0 -22 -2 -12 -5z"/>
</g>
</svg>
